<svg xmlns="http://www.w3.org/2000/svg" xmlns:xlink="http://www.w3.org/1999/xlink" width="413" height="220" viewBox="0 0 413 220">
  <defs>
    <style>
      .cls-1 {
        fill: url(#linear-gradient);
      }

      .cls-2 {
        clip-path: url(#clip-path);
      }

      .cls-3 {
        clip-path: url(#clip-path-2);
      }
    </style>
    <linearGradient id="linear-gradient" x1="0.943" y1="0.5" x2="0.426" y2="0.5" gradientUnits="objectBoundingBox">
      <stop offset="0" stop-color="#e53533"/>
      <stop offset="0.729" stop-color="#d63230"/>
      <stop offset="1"/>
    </linearGradient>
    <clipPath id="clip-path">
      <rect id="Прямоугольник_439" data-name="Прямоугольник 439" class="cls-1" width="413" height="220" transform="translate(111 269)"/>
    </clipPath>
    <clipPath id="clip-path-2">
      <path id="Сгруппировать_724" data-name="Сгруппировать 724" class="cls-1" d="M349.714,184.92V82.079H317.88l-64.858,95.4c.3-4.364.4-8.925.4-13.686,0-27.57-4.76-48.495-14.578-62.676Q224.411,79.55,196.1,79.6q-29.008,0-43.04,20.529-13.983,20.528-13.983,63.767a198.3,198.3,0,0,0,1.091,21.024H119.735V82.079H87.9L16.2,187.7v24H86.017v33.917h33.817V211.7h26.181a72.723,72.723,0,0,0,7.438,14.975c9.52,14.182,23.8,21.223,42.644,21.223,19.438,0,33.917-6.942,43.239-20.628a65.057,65.057,0,0,0,7.636-15.57H316v33.917h33.818V211.7h19.636V184.92Zm-263-47.9c-.4,8.826-.6,15.471-.6,20.132v27.669H46.844L76.794,139.5a121.476,121.476,0,0,0,9.917-17.851H87.6C87.405,123.136,87.108,128.194,86.711,137.02Zm126.94,69.718c-3.57,8.826-9.421,13.19-17.454,13.19-8.231,0-14.082-4.264-17.553-12.991s-5.157-23.107-5.157-43.14,1.785-34.413,5.256-43.239,9.322-13.19,17.454-13.19c7.934,0,13.785,4.463,17.355,13.19,3.669,8.727,5.454,23.206,5.454,43.239C219.006,183.631,217.221,197.912,213.651,206.738ZM316.69,137.02c-.4,8.826-.6,15.471-.6,20.132v27.669H276.823l29.95-45.321a121.476,121.476,0,0,0,9.917-17.851h.893C317.384,123.136,317.086,128.194,316.69,137.02Z" transform="translate(505.8 135.4)"/>
    </clipPath>
  </defs>
  <g id="Группа_масок_42" data-name="Группа масок 42" class="cls-2" transform="translate(-111 -269)">
    <g id="Группа_масок_15" data-name="Группа масок 15" class="cls-3" transform="translate(-395.894 75.992)">
      <rect id="pngtree-laser-gradient-atmosphere-personality-fashion-image_41640" class="cls-1" width="317" height="476" transform="translate(472.894 518.008) rotate(-90)"/>
    </g>
  </g>
</svg>
