<svg xmlns="http://www.w3.org/2000/svg" width="29.156" height="29.156" viewBox="0 0 29.156 29.156">
  <g id="rub-symbol" transform="translate(0)">
    <path id="Контур_18" data-name="Контур 18" d="M9.7,24.184v-2.7H7.323V19.093H9.7v-1.34H7.323v-2.4H9.7V7.008h7.9c1.984,0,3.314.392,4.077,1.2S22.8,10.4,22.8,12.479c0,2-.384,3.35-1.176,4.119s-2.168,1.137-4.223,1.137l-.713.013H14.541l-.2,0H12.38v1.34H14.75v2.395H12.38v2.7H9.7Zm6.631-8.836c2.155,0,2.964-.262,3.267-.481.273-.2.6-.751.6-2.248,0-1.931-.266-2.54-.424-2.731s-.623-.476-2.149-.476L16.907,9.4H12.377v5.947h3.951Zm-1.75,13.808A14.578,14.578,0,1,1,29.156,14.578,14.6,14.6,0,0,1,14.578,29.156Zm0-26.013A11.436,11.436,0,1,0,26.014,14.579,11.448,11.448,0,0,0,14.578,3.144Z" transform="translate(0 0)"/>
  </g>
</svg>
