<svg id="_3d-printing-3" data-name="3d-printing-3" xmlns="http://www.w3.org/2000/svg" width="35.246" height="35.245" viewBox="0 0 35.246 35.245">
  <g id="Сгруппировать_55" data-name="Сгруппировать 55" transform="translate(0 0)">
    <g id="Сгруппировать_54" data-name="Сгруппировать 54">
      <path id="Контур_13" data-name="Контур 13" d="M34.557,2.76H26.021V.7a.688.688,0,0,0-.688-.688H9.913A.688.688,0,0,0,9.225.7V2.76H.688A.688.688,0,0,0,0,3.449V6.2a.688.688,0,0,0,.688.688H9.225V7.3a.686.686,0,0,0,.206.491l4.831,4.831a.688.688,0,0,0,.367.191v2.609a.688.688,0,0,0,.335.591l1.921,1.148a1.377,1.377,0,0,1-1.326,1.015H10.207a.688.688,0,0,0-.676.561l-.365,1.935A6.753,6.753,0,0,0,8,21.352l-1.625-.525a.688.688,0,0,0-.808.31L3.811,24.171a.688.688,0,0,0,.135.856l1.269,1.146c-.023.226-.034.454-.034.68s.011.454.034.68L3.945,28.68a.689.689,0,0,0-.135.856L5.566,32.57a.689.689,0,0,0,.808.31L8,32.356a6.754,6.754,0,0,0,1.178.681l.358,1.671a.688.688,0,0,0,.673.544h3.505a.688.688,0,0,0,.673-.544l.358-1.671a6.759,6.759,0,0,0,1.178-.681l1.625.525a.689.689,0,0,0,.808-.31l1.755-3.035a.688.688,0,0,0-.135-.856l-1.269-1.146c.023-.226.034-.454.034-.68s-.011-.454-.034-.68l1.269-1.146a.689.689,0,0,0,.135-.856l-1.755-3.035a.688.688,0,0,0-.808-.31l-1.625.525a6.759,6.759,0,0,0-1.529-.828.688.688,0,1,0-.494,1.285,5.388,5.388,0,0,1,1.459.843.689.689,0,0,0,.645.12l1.439-.465,1.2,2.071-1.123,1.014a.688.688,0,0,0-.219.617,5.455,5.455,0,0,1,0,1.687.688.688,0,0,0,.219.617l1.123,1.014-1.2,2.071L16,30.935a.688.688,0,0,0-.645.12A5.389,5.389,0,0,1,13.9,31.9a.688.688,0,0,0-.426.5l-.317,1.479H10.764L10.447,32.4a.688.688,0,0,0-.426-.5,5.387,5.387,0,0,1-1.458-.843.688.688,0,0,0-.645-.12L6.479,31.4l-1.2-2.071L6.4,28.314a.688.688,0,0,0,.219-.617,5.455,5.455,0,0,1,0-1.687.688.688,0,0,0-.219-.617L5.281,24.378l1.2-2.071,1.439.465a.688.688,0,0,0,.645-.12,5.389,5.389,0,0,1,1.458-.843.688.688,0,0,0,.429-.515l.328-1.738h4.781a2.757,2.757,0,0,0,2.722-2.344l2-1.2a.688.688,0,0,0,.335-.591V12.816a.687.687,0,0,0,.367-.191L25.82,7.79l0,0a.686.686,0,0,0,.2-.484V6.891h8.536a.688.688,0,0,0,.688-.688V3.449A.689.689,0,0,0,34.557,2.76ZM9.225,5.514H1.377V4.137H9.225V5.514Zm10.016,9.521L17.623,16l-1.618-.967V12.827h3.235v2.208Zm.972-3.584H15.034L11.575,7.992h12.1Zm4.431-4.835H10.6V4.688h8a.688.688,0,1,0,0-1.377h-8V1.384H24.644Zm9.225-1.1H26.021V4.137h7.848Z" transform="translate(0 -0.007)"/>
    </g>
  </g>
  <g id="Сгруппировать_57" data-name="Сгруппировать 57" transform="translate(20.827 3.304)">
    <g id="Сгруппировать_56" data-name="Сгруппировать 56">
      <path id="Контур_14" data-name="Контур 14" d="M303.24,48.006h-.01a.688.688,0,0,0,0,1.377h.01a.688.688,0,0,0,0-1.377Z" transform="translate(-302.541 -48.006)"/>
    </g>
  </g>
  <g id="Сгруппировать_59" data-name="Сгруппировать 59" transform="translate(8.03 22.917)">
    <g id="Сгруппировать_58" data-name="Сгруппировать 58">
      <path id="Контур_15" data-name="Контур 15" d="M120.585,332.913a3.93,3.93,0,1,0,3.93,3.93A3.934,3.934,0,0,0,120.585,332.913Zm0,6.482a2.553,2.553,0,1,1,2.553-2.553A2.556,2.556,0,0,1,120.585,339.4Z" transform="translate(-116.655 -332.913)"/>
    </g>
  </g>
  <g id="Сгруппировать_61" data-name="Сгруппировать 61" transform="translate(22.189 13.664)">
    <g id="Сгруппировать_60" data-name="Сгруппировать 60">
      <path id="Контур_16" data-name="Контур 16" d="M335.165,206.446l-.923-.834c.013-.154.02-.308.02-.462s-.007-.308-.02-.462l.923-.834A.688.688,0,0,0,335.3,203l-1.357-2.346a.688.688,0,0,0-.808-.31l-1.182.382a5.372,5.372,0,0,0-.8-.463l-.26-1.215a.688.688,0,0,0-.673-.544h-2.71a.688.688,0,0,0-.673.544l-.26,1.215a5.375,5.375,0,0,0-.8.463l-1.182-.382a.688.688,0,0,0-.808.31L322.428,203a.688.688,0,0,0,.134.856l.923.834c-.013.154-.02.308-.02.462s.007.308.02.462l-.923.834a.689.689,0,0,0-.134.856l1.357,2.346a.689.689,0,0,0,.808.31l1.182-.382a5.379,5.379,0,0,0,.8.463l.26,1.215a.688.688,0,0,0,.673.544h2.71a.688.688,0,0,0,.673-.544l.26-1.215a5.373,5.373,0,0,0,.8-.463l1.182.382a.689.689,0,0,0,.808-.31L335.3,207.3A.688.688,0,0,0,335.165,206.446Zm-2.329-1.924a4.065,4.065,0,0,1,0,1.256.688.688,0,0,0,.219.617l.774.7-.8,1.383-.992-.321a.688.688,0,0,0-.645.12,4.011,4.011,0,0,1-1.085.628.689.689,0,0,0-.426.5l-.218,1.02h-1.6l-.218-1.02a.688.688,0,0,0-.426-.5,4.01,4.01,0,0,1-1.085-.628.688.688,0,0,0-.645-.12l-.992.321-.8-1.383.774-.7a.688.688,0,0,0,.219-.617,4.062,4.062,0,0,1,0-1.256.689.689,0,0,0-.219-.617l-.774-.7.8-1.382.992.321a.688.688,0,0,0,.645-.12,4.009,4.009,0,0,1,1.085-.628.688.688,0,0,0,.426-.5l.218-1.02h1.6l.218,1.02a.689.689,0,0,0,.426.5,4.009,4.009,0,0,1,1.085.628.689.689,0,0,0,.645.12l.992-.321.8,1.382-.774.7A.688.688,0,0,0,332.836,204.522Z" transform="translate(-322.335 -198.501)"/>
    </g>
  </g>
  <g id="Сгруппировать_63" data-name="Сгруппировать 63" transform="translate(25.523 17.119)">
    <g id="Сгруппировать_62" data-name="Сгруппировать 62">
      <path id="Контур_17" data-name="Контур 17" d="M373.961,248.686a3.194,3.194,0,1,0,3.194,3.194A3.2,3.2,0,0,0,373.961,248.686Zm0,5.012a1.817,1.817,0,1,1,1.817-1.817A1.819,1.819,0,0,1,373.961,253.7Z" transform="translate(-370.767 -248.686)"/>
    </g>
  </g>
</svg>
