<svg xmlns="http://www.w3.org/2000/svg" width="30.443" height="30.443" viewBox="0 0 30.443 30.443">
  <path id="repairing-service" d="M30.349,13.531a.991.991,0,0,0-.979-.75,3.361,3.361,0,0,1-2.3-5.849.846.846,0,0,0,.093-1.148,15.069,15.069,0,0,0-2.411-2.435.848.848,0,0,0-1.157.094,3.508,3.508,0,0,1-3.8.853A3.381,3.381,0,0,1,17.742.99.845.845,0,0,0,16.995.1,15.19,15.19,0,0,0,13.57.092a.847.847,0,0,0-.753.871A3.387,3.387,0,0,1,10.732,4.21a3.518,3.518,0,0,1-3.768-.858.848.848,0,0,0-1.149-.1A15.132,15.132,0,0,0,3.353,5.69a.847.847,0,0,0,.091,1.156,3.373,3.373,0,0,1,.851,3.8A3.518,3.518,0,0,1,.983,12.7.828.828,0,0,0,.1,13.45,15.259,15.259,0,0,0,.1,16.911a1.007,1.007,0,0,0,1,.749,3.339,3.339,0,0,1,3.132,2.086,3.387,3.387,0,0,1-.851,3.764.845.845,0,0,0-.092,1.147,15.122,15.122,0,0,0,2.408,2.436A.847.847,0,0,0,6.85,27a3.5,3.5,0,0,1,3.795-.853,3.376,3.376,0,0,1,2.06,3.3.845.845,0,0,0,.747.889,15.156,15.156,0,0,0,3.425.009.847.847,0,0,0,.753-.872,3.383,3.383,0,0,1,2.083-3.246,3.513,3.513,0,0,1,3.77.857.85.85,0,0,0,1.149.1,15.152,15.152,0,0,0,2.462-2.435A.845.845,0,0,0,27,23.594a3.372,3.372,0,0,1-.853-3.8,3.407,3.407,0,0,1,3.114-2.063l.188.005a.847.847,0,0,0,.891-.747A15.192,15.192,0,0,0,30.349,13.531ZM15.223,24a8.775,8.775,0,1,1,7.534-4.276l-3.843-3.843a5.383,5.383,0,0,0-6.373-7.291.609.609,0,0,0-.421.424.6.6,0,0,0,.169.582s1.9,1.912,2.532,2.546a.394.394,0,0,1,.057.282l-.006.042a12.132,12.132,0,0,1-.289,1.857l-.041.039L14.5,14.4a11.958,11.958,0,0,1-1.885.293v0l-.032.008h-.03a.406.406,0,0,1-.292-.124c-.661-.661-2.483-2.47-2.483-2.47a.62.62,0,0,0-.443-.2.6.6,0,0,0-.567.458,5.383,5.383,0,0,0,7.293,6.363l3.884,3.884A8.731,8.731,0,0,1,15.223,24Z" transform="translate(-0.002 0.001)"/>
</svg>
