<svg id="Сгруппировать_1041" data-name="Сгруппировать 1041" xmlns="http://www.w3.org/2000/svg" width="11.975" height="9.409" viewBox="0 0 11.975 9.409">
  <path id="Контур_1685" data-name="Контур 1685" d="M27.484,327.183a1.023,1.023,0,0,0,.7-.264l-3.393-3.393-.235.169q-.381.281-.618.438a3.815,3.815,0,0,1-.631.321,1.925,1.925,0,0,1-.735.164h-.013a1.924,1.924,0,0,1-.735-.164,3.8,3.8,0,0,1-.631-.321q-.237-.157-.618-.438l-.234-.17-3.393,3.394a1.024,1.024,0,0,0,.7.264Z" transform="translate(-16.578 -317.774)"/>
  <path id="Контур_1686" data-name="Контур 1686" d="M.675,199.136A3.543,3.543,0,0,1,0,198.555v5.162l2.99-2.99Q2.093,200.1.675,199.136Z" transform="translate(0 -195.521)"/>
  <path id="Контур_1687" data-name="Контур 1687" d="M415.63,199.136q-1.365.924-2.321,1.591l2.989,2.989v-5.162A3.689,3.689,0,0,1,415.63,199.136Z" transform="translate(-404.323 -195.521)"/>
  <path id="Контур_1688" data-name="Контур 1688" d="M10.912,59.013H1.075a.954.954,0,0,0-.792.347,1.348,1.348,0,0,0-.277.869,1.562,1.562,0,0,0,.368.912,3.315,3.315,0,0,0,.782.772q.227.16,1.37.952l1.076.748.674.472.1.071.184.133q.217.157.361.254t.348.217a2.027,2.027,0,0,0,.384.18,1.063,1.063,0,0,0,.334.06H6a1.064,1.064,0,0,0,.334-.06,2.023,2.023,0,0,0,.384-.18q.2-.12.348-.217t.361-.254l.184-.133.1-.071.676-.47,2.451-1.7a3.179,3.179,0,0,0,.815-.822,1.768,1.768,0,0,0,.327-1.009,1.078,1.078,0,0,0-1.069-1.069Z" transform="translate(-0.006 -59.013)"/>
</svg>
