<svg width="355" height="692" viewBox="0 0 355 692" fill="none" xmlns="http://www.w3.org/2000/svg">
<path d="M339.938 185.981C336.289 203.926 332.08 221.464 327.155 238.849C323.507 252.028 319.578 265.079 315.215 277.977C310.291 292.558 304.959 307.139 299.218 321.465C269.75 395.363 229.591 463.678 180.758 524.805V524.958C175.987 531 170.935 536.888 166.011 542.777C160.959 548.818 155.908 554.553 150.703 560.441C146.212 565.489 141.569 570.536 136.951 575.456C132.18 580.375 127.409 585.423 122.638 590.189C109.728 603.088 96.5371 615.578 82.9128 627.483C72.3757 636.736 61.7108 645.709 50.7655 654.273C34.054 667.605 16.8067 680.07 -0.899796 692C-14.0904 683.027 -27.1533 673.774 -39.9102 664.087C-44.1199 660.85 -48.3297 657.638 -52.5395 654.273C-34.7054 643.185 -17.5857 631.281 -0.874252 618.79C10.0711 610.506 20.8889 601.966 31.2729 593.121C44.8973 581.625 58.2155 569.695 70.9978 557.23C80.5399 547.977 89.9545 538.29 99.0629 528.476C109.447 517.26 119.423 505.764 129.093 493.834C178.079 433.803 217.957 366.074 246.43 292.584C252.043 278.411 257.095 264.11 261.738 249.377C265.82 236.759 269.469 223.86 272.837 210.962C260.769 205.354 248.42 200.154 235.791 195.26C229.055 192.583 222.167 190.06 215.15 187.816C213.9 187.256 212.471 186.822 211.221 186.414C208.415 185.42 205.455 184.451 202.649 183.61C197.163 181.775 191.55 180.093 186.09 178.41C173.461 174.612 160.679 171.247 147.641 168.316C132.894 164.951 118.02 161.994 102.865 159.751C69.5947 154.423 35.4827 151.747 0.682053 151.747C-35.1137 151.747 -70.1949 154.551 -104.46 160.159C-119.487 162.555 -134.362 165.486 -149.109 169.004C-149.67 167.041 -150.104 165.206 -150.512 163.243C-150.92 161.408 -151.354 159.445 -151.762 157.635C-152.885 152.996 -153.88 148.229 -154.849 143.615C-156.533 134.923 -158.09 126.358 -159.34 117.665C-144.593 114.148 -129.718 111.216 -114.691 108.82C-77.0837 102.651 -38.6091 99.4141 0.682053 99.4141C39.0036 99.4141 76.4833 102.371 113.121 108.259C128.149 110.655 143.023 113.587 157.897 116.952C170.807 119.909 183.717 123.121 196.5 126.919C213.492 131.838 230.331 137.293 246.762 143.462C259.544 148.102 272.173 153.276 284.522 158.604C303.453 167.067 321.976 176.167 339.938 185.981Z" fill="#252525"/>
<path d="M-33.0219 593.122C-49.7333 605.332 -66.8531 616.828 -84.6871 627.483C-98.3115 615.554 -111.63 603.089 -124.412 590.19C-133.954 580.504 -143.369 570.562 -152.477 560.468C-162.861 548.818 -172.837 537.042 -182.507 524.985C-231.085 464.112 -270.937 396.23 -300.406 323.046C-306.172 308.746 -311.504 294.292 -316.403 279.584C-320.766 266.686 -324.822 253.634 -328.471 240.456C-333.395 223.071 -337.732 205.533 -341.381 187.588C-344.187 173.975 -346.713 160.389 -348.831 146.496C-352.071 125.594 -354.444 104.436 -356 83.1006C-337.043 73.6944 -317.551 65.0021 -297.752 57.1509C-296.757 78.1808 -294.946 98.9559 -292.267 119.425C-290.583 133.165 -288.338 146.624 -285.939 159.956C-282.571 177.621 -278.77 195.005 -274.28 212.263C-270.759 225.161 -267.11 238.059 -262.9 250.83C-258.257 265.411 -253.205 279.712 -247.592 293.884C-219.093 366.814 -179.522 434.135 -130.816 493.86C-121.121 505.637 -111.17 517.286 -100.786 528.502C-91.6524 538.316 -82.2633 548.003 -72.7212 557.256C-61.7758 549.532 -50.9581 541.401 -40.574 533.142C-26.8221 522.053 -13.6315 510.557 -0.849121 498.652C8.8461 489.527 18.2351 480.146 27.216 470.46C37.6 459.524 47.576 448.028 57.2457 436.251C100.338 383.663 135.42 324.193 160.423 259.676C165.909 245.656 170.96 231.355 175.451 216.775C192.29 221.694 208.848 227.43 224.998 233.752C220.508 248.332 215.456 262.633 209.971 276.806C182.748 347.492 144.426 412.85 96.9704 470.485C87.2751 482.262 77.3249 493.631 66.9408 504.694C57.8069 514.508 48.4179 523.914 38.8758 533.167C26.0934 545.377 12.7752 557.154 -0.849121 568.37C-11.2587 576.859 -22.051 585.117 -33.0219 593.122Z" fill="#252525"/>
<path d="M354.404 81.5197C352.847 102.983 350.475 124.013 347.387 144.915C328.865 135.229 310.061 126.409 290.671 118.125C278.169 112.924 265.412 107.877 252.502 103.263C235.79 97.3751 218.824 91.8945 201.551 87.1277C188.769 83.4825 175.731 80.2451 162.668 77.3137C147.794 74.0763 132.766 71.2724 117.611 68.9017C79.5701 62.8604 40.4065 59.7761 0.68161 59.7761C-40.1658 59.7761 -80.1713 63.0134 -119.182 69.3096C-134.337 71.8332 -149.364 74.6372 -164.239 78.002C-177.302 80.9589 -190.34 84.3238 -203.122 87.969C-201.846 101.301 -200.162 114.607 -198.07 127.786C-195.264 145.17 -191.743 162.275 -187.533 179.252C-184.446 192.15 -180.797 204.921 -176.868 217.539C-172.378 232.12 -167.326 246.42 -161.841 260.44C-136.71 324.677 -101.909 383.841 -58.9439 436.174C-49.2487 447.951 -39.2983 459.447 -28.9142 470.383C-41.6966 482.44 -54.8872 493.809 -68.6391 504.592C-79.0232 493.503 -88.9991 482.159 -98.6688 470.383C-145.844 413.028 -184.012 348.103 -211.235 277.697C-216.721 263.677 -221.772 249.377 -226.39 234.771C-230.32 222.153 -233.968 209.254 -237.208 196.356C-241.571 179.379 -245.219 161.994 -248.307 144.61C-250.552 131.278 -252.516 117.819 -254.073 104.36C-256.471 84.0179 -257.874 63.3957 -258.436 42.6462C-241.443 36.7578 -224.043 31.5577 -206.362 26.9439C-193.299 23.4261 -179.981 20.2141 -166.637 17.4101C-151.61 14.1728 -136.327 11.5218 -121.019 9.12561C-81.2938 3.08428 -40.7271 0 0.68161 0C40.9678 0 80.5395 2.95687 119.295 8.69231C134.603 10.9355 149.886 13.6121 164.913 16.8239C178.257 19.5004 191.575 22.5848 204.638 26.0771C222.319 30.5635 239.72 35.7636 256.865 41.499C270.055 45.9854 283.118 50.7522 296.156 55.7994C315.929 63.7015 335.319 72.2665 354.404 81.5197Z" fill="#252525"/>
<path d="M51.8888 384.424C52.0424 378.241 52.0426 372.059 52.0426 365.876C52.0426 350.202 50.7624 334.374 49.7383 318.7C49.7383 316.263 50.7368 315.544 52.4778 314.518C73.0111 300.999 93.9541 287.351 114.769 273.96C97.5385 313.107 76.5954 350.048 51.8888 384.424Z" fill="#252525"/>
<path d="M125.461 206.662C113.451 214.234 101.161 221.526 88.718 228.232C73.0109 236.825 56.8448 244.397 40.1178 250.67C36.548 252.097 32.9781 253.398 29.4083 254.392C26.68 255.106 25.1245 256.815 24.2576 259.39C21.6822 267.982 21.5548 276.702 21.9628 285.55C23.2632 309.288 27.7 332.439 32.9782 355.437C33.1312 356.738 33.1311 358.446 32.4172 359.313C21.6823 371.296 10.6924 383.305 -0.603493 395.748V396.895C-5.7542 391.184 -10.4714 386.034 -15.1886 380.73C-21.1807 374.305 -27.1984 367.88 -32.9101 361.149C-33.9045 360.154 -34.1851 358.165 -33.9046 356.738C-30.7683 337.589 -27.0455 318.288 -24.0367 298.987C-22.3283 287.691 -22.3282 276.116 -24.1896 264.54C-25.3371 259.39 -27.4789 256.407 -33.0631 254.545C-65.9307 243.683 -96.0954 226.957 -125.113 208.65C-125.954 208.243 -126.668 207.656 -127.535 207.095C-86.2275 198.375 -43.339 193.786 0.390991 193.786C43.1265 193.786 85.1481 198.222 125.461 206.662Z" fill="#252525"/>
</svg>
