<svg xmlns="http://www.w3.org/2000/svg" width="81" height="53" viewBox="0 0 81 53" fill="none">
  <g clip-path="url(#clip0_270_38743)">
    <path d="M26.0595 4.24043C26.1776 4.24043 26.2865 4.2509 26.3837 4.26648C26.893 4.34463 27.4024 4.42303 27.912 4.50118C28.1793 4.43605 28.4467 4.37067 28.714 4.30555C28.7657 4.30044 28.8237 4.29712 28.8873 4.29712C28.9943 4.29712 29.1166 4.30683 29.2487 4.33492C29.6865 4.42788 29.9768 4.66743 30.1102 4.79461C30.4931 4.84365 30.8761 4.89243 31.259 4.94121C31.6403 4.78849 31.962 4.76141 32.1603 4.76039C32.1732 4.76039 32.1864 4.76039 32.1999 4.76039C32.3234 4.76039 32.4695 4.7655 32.6453 4.81428C32.9941 4.91133 33.2237 5.11538 33.3385 5.2349C37.5072 5.82816 41.6761 6.42167 45.8448 7.01494C46.0759 6.94981 46.3068 6.88443 46.5379 6.81931C46.6116 6.79913 46.7231 6.77589 46.858 6.77589C46.9302 6.77589 47.009 6.78253 47.0923 6.79965C47.523 6.88826 47.7625 7.19345 47.825 7.279C48.5017 7.3832 49.1783 7.48765 49.8549 7.59185C50.0861 7.51677 50.317 7.44194 50.5481 7.36686C50.6037 7.35792 50.6738 7.35 50.7547 7.35C50.8431 7.35 50.9445 7.35919 51.0531 7.38627C51.46 7.4874 51.6917 7.76705 51.7659 7.86562L67.0348 10.1738C67.2416 10.0836 67.4485 9.9935 67.6553 9.90309C67.7143 9.88981 67.7962 9.87627 67.8934 9.87627C67.9682 9.87627 68.0517 9.88419 68.1404 9.90641C68.5621 10.0114 68.7699 10.3526 68.8136 10.4282C69.7405 10.5699 70.6675 10.7119 71.5944 10.8536C71.7834 10.7642 71.9721 10.6746 72.1611 10.585C72.2053 10.5763 72.2793 10.5645 72.3719 10.5645C72.4815 10.5645 72.6177 10.5809 72.7628 10.6383C73.1018 10.7724 73.2597 11.0393 73.3024 11.1177C74.2859 11.2773 75.2697 11.4372 76.2533 11.5971C76.4112 11.6356 76.6734 11.7209 76.9415 11.9199C77.2311 12.1346 77.3917 12.3819 77.4713 12.5262C77.7107 12.7024 78.0166 12.9654 78.308 13.338C78.5642 13.6654 78.733 13.9798 78.8442 14.2298C79.2052 14.3971 79.5661 14.5646 79.9268 14.7319C79.9695 14.7511 80.0742 14.8052 80.1479 14.9242C80.2422 15.0764 80.2208 15.2294 80.2138 15.2698C80.1551 15.9468 80.1091 16.4463 80.0948 16.6292C80.0923 16.6611 80.0863 16.741 80.0452 16.8345C80.0005 16.9364 79.9345 17.0066 79.8867 17.0498C79.6424 17.2194 79.3983 17.3889 79.154 17.5585C78.6257 23.2084 78.0978 28.8586 77.5696 34.5085C77.7332 34.6969 78.4486 35.5614 78.2925 36.6894C78.2439 37.0403 78.1234 37.3274 78.0052 37.5404L76.8963 38.7629C76.722 38.9343 76.3381 39.2614 75.7576 39.3792C75.612 39.4088 75.4711 39.4216 75.3351 39.4216C74.3966 39.4216 73.7117 38.8017 73.6287 38.7238C73.2228 38.6163 72.8168 38.5086 72.4106 38.401C70.0045 40.7105 67.5982 43.0197 65.1921 45.3291C65.1613 45.866 65.1305 46.4028 65.0998 46.9396C65.2849 47.1761 66.1904 48.3797 65.8193 49.6978C65.7655 49.8885 65.6774 50.1097 65.529 50.3434C65.0424 50.8577 64.5982 51.3271 64.1232 51.8289C63.9174 52.0465 63.6692 52.2217 63.3918 52.3377C63.1239 52.4498 62.7764 52.5504 62.3844 52.5504C62.3438 52.5504 62.3027 52.5494 62.2611 52.5471C61.3197 52.4958 60.7191 51.9579 60.5645 51.8103C60.0011 51.644 59.438 51.4778 58.8746 51.3115C58.73 51.4071 58.488 51.5401 58.1617 51.605C58.0237 51.6323 57.8931 51.643 57.7731 51.643C57.4973 51.643 57.2778 51.5863 57.1516 51.5462C56.2438 51.2658 55.3363 50.9854 54.4285 50.705C54.3853 50.7476 54.1265 50.9949 53.7516 50.9949C53.7294 50.9949 53.7066 50.9941 53.6836 50.9921C53.2857 50.9604 52.9356 50.6537 52.8244 50.2256C51.778 49.9095 50.7317 49.593 49.6856 49.2769C49.6533 49.2976 49.3875 49.4625 49.034 49.4625C48.9071 49.4625 48.769 49.4413 48.6263 49.3844C48.1549 49.1969 47.9957 48.7656 47.9727 48.6997C42.4836 47.0175 36.9945 45.3353 31.5056 43.6528C31.4534 43.6691 31.3358 43.701 31.1822 43.701C31.079 43.701 30.9593 43.6865 30.8324 43.6428C30.526 43.5376 30.361 43.3267 30.3075 43.2516C29.3405 42.9548 28.3733 42.6583 27.4063 42.3616C27.3556 42.3759 27.2317 42.4075 27.0717 42.4075C26.9267 42.4075 26.7516 42.3815 26.5745 42.2931C26.3772 42.1948 26.2542 42.0574 26.1882 41.9703L12.2692 37.6408C12.2015 37.6706 11.966 37.7684 11.6521 37.7684C11.5044 37.7684 11.3397 37.7467 11.1668 37.6865C10.6861 37.5184 10.4506 37.1578 10.3878 37.0539C9.86832 36.8953 9.34914 36.7364 8.82971 36.5778C8.76817 36.5967 8.54375 36.6619 8.25805 36.6619C7.99639 36.6619 7.68328 36.607 7.39732 36.4116C7.21039 36.2839 7.08576 36.1307 7.00458 36.004C6.53194 35.8311 6.05956 35.6585 5.58693 35.4856C5.4199 35.4227 5.10291 35.2774 4.82445 34.9623C4.6114 34.7212 4.50591 34.477 4.45317 34.3218C2.60658 23.1578 1.81153 18.243 1.80274 18.006C1.79989 17.9253 1.79653 17.8885 1.78981 17.8152C1.77042 17.6004 1.75516 17.4426 1.68561 17.2661C1.66519 17.2143 1.63132 17.1389 1.57676 17.0526C1.29158 16.965 1.07775 16.8884 0.979243 16.8455C0.949768 16.8327 0.898574 16.809 0.86703 16.7558C0.842985 16.7152 0.839882 16.6736 0.840657 16.6465C0.732065 16.5814 0.666135 16.5091 0.628645 16.4599C0.582881 16.4001 0.573054 16.3669 0.569176 16.3493C0.547716 16.2538 0.598652 16.1702 0.61882 16.1409C0.585208 16.0482 0.550303 15.9207 0.539702 15.7667C0.525223 15.5614 0.559611 15.3926 0.591672 15.2823C0.577193 15.2299 0.553405 15.1142 0.597618 14.9832C0.635625 14.8708 0.705175 14.8032 0.750164 14.7605C0.836262 14.6788 0.919259 14.6397 1.19565 14.5355C1.30476 14.4944 1.43456 14.4469 1.58193 14.3953C1.53849 14.1517 1.37819 13.0957 2.05715 12.1392C2.40801 11.6453 2.84264 11.3749 3.10688 11.2395C7.90719 9.75062 25.2174 4.38293 25.6078 4.29202C25.7523 4.25831 25.8981 4.2463 25.8981 4.2463C25.9535 4.24171 26.0072 4.23966 26.0589 4.23966M26.0589 3.77997C25.9928 3.77997 25.9255 3.78278 25.8596 3.78814C25.841 3.78967 25.674 3.80397 25.5005 3.84458C25.1494 3.92656 13.0529 7.67281 2.96726 10.801L2.92848 10.813L2.89228 10.8314C2.40362 11.0819 1.98295 11.4428 1.67604 11.8754C1.10619 12.6781 1.04104 13.539 1.07698 14.0883C1.0612 14.0942 1.04543 14.1001 1.02966 14.106C0.75249 14.2104 0.587792 14.2768 0.42723 14.429C0.368539 14.4847 0.230988 14.6152 0.155749 14.8374C0.108951 14.9756 0.0952484 15.1227 0.11464 15.2687C0.0755983 15.4429 0.062411 15.6207 0.0748216 15.7984C0.0823197 15.9044 0.0988682 16.0096 0.124465 16.1128C0.0934386 16.2234 0.0895599 16.3378 0.114381 16.4486C0.136358 16.5472 0.181605 16.6386 0.256844 16.7369C0.307262 16.8031 0.365178 16.8636 0.429558 16.9185C0.4399 16.9423 0.451794 16.9655 0.46498 16.9877C0.573831 17.1719 0.738013 17.2431 0.792051 17.2666C0.892887 17.3103 1.05758 17.3698 1.2515 17.4326C1.2515 17.4326 1.2515 17.4326 1.2515 17.4329C1.29649 17.547 1.30786 17.6563 1.32596 17.856C1.33243 17.9276 1.33475 17.9544 1.33734 18.0231C1.34173 18.1439 1.35208 18.4271 3.99346 34.3963L3.99967 34.4331L4.01182 34.4686C4.1124 34.7641 4.26779 35.032 4.47359 35.2652C4.72827 35.5532 5.0556 35.7782 5.42094 35.9156L5.423 35.9164L5.42507 35.9172L6.65113 36.3656L6.70595 36.3858C6.82721 36.5439 6.96993 36.6792 7.13204 36.7901C7.4542 37.0105 7.83298 37.1221 8.25753 37.1221C8.48221 37.1221 8.67897 37.0896 8.82014 37.0567L10.0927 37.4454C10.2608 37.6699 10.5525 37.9597 11.0109 38.1201C11.2167 38.1921 11.4321 38.2284 11.6513 38.2284C11.9062 38.2284 12.125 38.1788 12.2827 38.1275L25.9178 42.3687C26.0458 42.5066 26.1978 42.621 26.3638 42.7038C26.5817 42.8123 26.8196 42.8675 27.0709 42.8675C27.1762 42.8675 27.2837 42.8573 27.3879 42.8378L29.2017 43.3943L30.0332 43.6495C30.1645 43.7953 30.375 43.9733 30.679 44.0775C30.8406 44.1329 31.0097 44.161 31.1817 44.161C31.2851 44.161 31.3901 44.1505 31.4919 44.1301L39.601 46.6153L47.6352 49.0777C47.7625 49.3106 48.0094 49.6347 48.452 49.8106C48.6377 49.8844 48.8334 49.922 49.0338 49.922C49.3236 49.922 49.5672 49.8446 49.7324 49.7716L50.235 49.9235L52.4653 50.5975C52.6848 51.0773 53.1329 51.4088 53.6464 51.45C53.6813 51.4528 53.7167 51.4543 53.7519 51.4543C54.0802 51.4543 54.3434 51.3358 54.5254 51.2163L57.0114 51.9842C57.2586 52.0626 57.5148 52.1025 57.7731 52.1025C57.9342 52.1025 58.0958 52.0866 58.2535 52.0552C58.494 52.0075 58.7233 51.925 58.9384 51.8098L60.3279 52.2199C60.4965 52.3683 60.6888 52.5037 60.89 52.6153C61.3107 52.8487 61.7634 52.98 62.2355 53.0058C62.2846 53.0086 62.3348 53.0098 62.3844 53.0098C62.7782 53.0098 63.1782 52.9261 63.5733 52.7606C63.9084 52.6204 64.2078 52.4122 64.4632 52.1423L64.6033 51.9942L65.8687 50.6567L65.8992 50.6245L65.923 50.5873C66.0763 50.3457 66.1924 50.0877 66.2677 49.8206C66.4528 49.1632 66.3962 48.4635 66.0993 47.7402C65.9393 47.35 65.7397 47.029 65.574 46.7994L65.6094 46.1824L65.6466 45.5337L68.3958 42.8953L72.5456 38.9126L73.4019 39.1396C73.6732 39.3669 74.3912 39.8812 75.3354 39.8812C75.5081 39.8812 75.6816 39.8639 75.8515 39.8294C76.4973 39.6984 76.955 39.3544 77.2249 39.0888L77.2342 39.0796L77.243 39.0699L77.7976 38.4585L78.3522 37.8471L78.3881 37.8075L78.414 37.761C78.5911 37.4413 78.7056 37.1016 78.754 36.7518C78.9042 35.6679 78.3868 34.7998 78.0507 34.3649L79.1232 22.892L79.5979 17.8124L79.7882 17.6803L80.1546 17.426L80.1784 17.4094L80.1998 17.39C80.3188 17.2832 80.4105 17.1578 80.4721 17.0176C80.5442 16.8539 80.5551 16.7117 80.5587 16.6647C80.5662 16.5666 80.5833 16.3746 80.6068 16.109C80.6262 15.8914 80.6497 15.6255 80.6758 15.3244C80.6962 15.1855 80.7004 14.9357 80.5445 14.6839C80.418 14.4801 80.2461 14.3708 80.1228 14.3149L79.5829 14.0646L79.1951 13.8848C79.0513 13.5919 78.8771 13.3143 78.6759 13.0568C78.4303 12.743 78.1451 12.4605 77.8276 12.2166C77.6707 11.96 77.4625 11.7316 77.2208 11.5524C76.9645 11.3621 76.6765 11.227 76.3647 11.1509L76.3466 11.1466L76.3282 11.1435L75.1686 10.9553L73.5785 10.6971C73.448 10.5283 73.2421 10.3334 72.9352 10.2121C72.7561 10.1411 72.5663 10.1054 72.3711 10.1054C72.2695 10.1054 72.1681 10.1153 72.0691 10.1347L72.0117 10.146L71.9589 10.171L71.5222 10.3778L70.5216 10.2249L69.0825 10.0047C68.9264 9.80885 68.6588 9.56215 68.2531 9.46127C68.1357 9.43216 68.0145 9.41735 67.8924 9.41735C67.7784 9.41735 67.6633 9.43037 67.5506 9.45565L67.5072 9.46536L67.4663 9.48323L66.9699 9.6998L52.0074 7.43785C51.8355 7.25679 51.5588 7.03894 51.1653 6.94113C51.0313 6.90793 50.8925 6.89082 50.7531 6.89082C50.6596 6.89082 50.5647 6.89848 50.4711 6.9138L50.4356 6.91968L50.4015 6.93066L50.0551 7.04303L49.8149 7.12092L48.9104 6.98148L48.0699 6.852C47.8925 6.66199 47.604 6.43598 47.1856 6.34991C47.0778 6.32769 46.9671 6.31646 46.8565 6.31646C46.7073 6.31646 46.5579 6.33663 46.4123 6.37647L46.4105 6.37698L46.4087 6.37749L46.1315 6.45564L45.8114 6.54605L33.5526 4.80125C33.3238 4.59873 33.0562 4.45138 32.7702 4.37195C32.545 4.30938 32.355 4.30095 32.1988 4.30095C32.1846 4.30095 32.1706 4.30095 32.1569 4.30095C31.8356 4.30274 31.5147 4.35969 31.2016 4.47079L30.3122 4.35714C30.0926 4.17531 29.7702 3.97585 29.3454 3.8857C29.1952 3.85377 29.0408 3.83769 28.886 3.83769C28.8133 3.83769 28.7396 3.84126 28.667 3.84841L28.6336 3.85173L28.601 3.85965L28.2 3.95746L27.8898 4.03306L26.8359 3.87114L26.4556 3.81266C26.3232 3.79146 26.1895 3.78073 26.0582 3.78073L26.0589 3.77997Z" fill="#F91C1C"/>
    <path d="M7.84759 17.024C7.84759 17.024 7.48949 17.094 7.1875 17.8913" stroke="#F91C1C" stroke-width="0.3" stroke-miterlimit="10" stroke-linecap="round"/>
    <path d="M9.8457 10.4174C9.66161 10.4069 9.57628 10.5032 9.56827 10.6838C8.49993 11.0283 7.43132 11.3731 6.36298 11.7176C5.84742 11.9285 5.03919 12.3581 4.4321 13.2042C3.76995 14.1271 3.66653 15.1009 3.59051 15.8157C3.52613 16.4207 3.55121 16.93 3.58715 17.286L3.62671 17.6721" stroke="#F91C1C" stroke-width="0.3" stroke-miterlimit="10" stroke-linecap="round"/>
    <path d="M30.1113 4.79485C29.801 4.73509 29.4908 4.67533 29.1805 4.61557C29.0388 4.58824 28.8868 4.59769 28.7249 4.64162L27.0723 5.08701" stroke="#F91C1C" stroke-width="0.3" stroke-miterlimit="10" stroke-linecap="round"/>
    <path d="M33.3383 5.23488L32.6674 5.10284C32.3969 5.05866 32.1787 5.08318 31.9941 5.15162L10.168 12.365C9.09011 12.8924 8.57972 14.0924 8.49414 15.6416" stroke="#F91C1C" stroke-width="0.3" stroke-miterlimit="10" stroke-linecap="round"/>
    <path d="M9.59623 12.6048C7.85461 13.4705 7.14256 15.2242 7.18754 17.8912L22.8921 21.471C22.7949 18.9631 23.4299 17.0492 24.8602 15.7802C25.1743 15.5016 25.5355 15.2794 25.926 15.1206L45.8452 7.01514" stroke="#F91C1C" stroke-width="0.3" stroke-miterlimit="10" stroke-linecap="round"/>
    <path d="M10.1681 12.365C9.96621 12.4355 9.7754 12.5154 9.5957 12.6045" stroke="#F91C1C" stroke-width="0.3" stroke-miterlimit="10" stroke-linecap="round"/>
    <path d="M1.58378 14.3963C1.54008 15.0309 2.32324 15.2227 3.25533 15.3351" stroke="#F91C1C" stroke-width="0.3" stroke-miterlimit="10" stroke-linecap="round"/>
    <path d="M0.841794 16.6475L1.61254 16.8447C1.61254 16.8447 1.61254 16.5903 1.84033 16.5464L0.570312 16.2548" stroke="#F91C1C" stroke-width="0.3" stroke-miterlimit="10" stroke-linecap="round"/>
    <path d="M3.1978 15.8671C2.73732 16.1832 2.27683 16.4991 1.81635 16.8153C1.79127 16.8416 1.68397 16.9593 1.68759 17.1348C1.68966 17.2385 1.72973 17.3159 1.753 17.3537C1.75326 17.3578 1.75352 17.3616 1.75404 17.3657C2.25356 17.4734 2.75283 17.5812 3.25236 17.689" stroke="#F91C1C" stroke-width="0.3" stroke-miterlimit="10" stroke-linecap="round"/>
    <path d="M3.17086 18.0093L1.81423 17.7054C1.76485 17.6078 1.74778 17.4934 1.7558 17.3657" stroke="#F91C1C" stroke-width="0.3" stroke-miterlimit="10" stroke-linecap="round"/>
    <path d="M3.31687 18.2603L1.84363 17.9252C1.84363 17.9252 1.77693 17.8151 1.8139 17.7051" stroke="#F91C1C" stroke-width="0.3" stroke-miterlimit="10" stroke-linecap="round"/>
    <path d="M3.14781 16.2895C3.17211 16.3048 2.64234 16.4351 2.72326 16.6189C2.79954 16.7929 3.1703 16.6994 3.14781 16.7234" stroke="#F91C1C" stroke-width="0.3" stroke-miterlimit="10" stroke-linecap="round"/>
    <path d="M6.36257 11.7178C6.36257 11.7178 4.75075 12.5966 4.86968 15.0744C4.86968 15.0744 3.91278 15.1724 3.73438 16.5497L3.99836 19.3518C3.99836 19.3518 4.04774 19.8376 4.55787 20.0038L4.88468 20.0871L4.96354 21.3576C4.96354 21.3607 4.96095 21.363 4.95811 21.3622L4.23054 21.2026C4.21865 21.2 4.20753 21.2095 4.20856 21.2217L4.3699 23.129C4.3699 23.129 4.37481 23.3391 4.60751 23.486C4.84021 23.6326 7.14237 24.0923 7.14237 24.0923C7.14237 24.0923 7.44927 24.1367 7.44436 23.8601" stroke="#F91C1C" stroke-width="0.3" stroke-miterlimit="10" stroke-linecap="round"/>
    <path d="M7.1595 21.8027C7.1595 21.8027 6.54362 21.6518 6.52682 21.6518C6.51001 21.6518 6.43555 20.1407 6.43555 20.1407" stroke="#F91C1C" stroke-width="0.3" stroke-miterlimit="10" stroke-linecap="round"/>
    <path d="M7.01596 20.6351L6.74681 20.5776C6.70725 20.5692 6.67234 20.546 6.64959 20.513C6.56633 20.3917 6.36621 20.0853 6.33105 19.8963C6.2933 19.6932 6.25555 19.2759 6.24495 19.1534C6.24314 19.1327 6.22789 19.1158 6.20746 19.1117L4.63313 18.7894C4.62563 18.7879 4.61865 18.7938 4.61917 18.8014L4.66752 19.5053C4.66752 19.5053 4.74663 19.8329 4.8953 19.921" stroke="#F91C1C" stroke-width="0.3" stroke-miterlimit="10" stroke-linecap="round"/>
    <path d="M4.88478 20.0871C4.88478 20.0871 4.87987 19.4366 5.06292 19.2852C5.24624 19.1335 5.52056 18.9713 5.52056 18.9713" stroke="#F91C1C" stroke-width="0.3" stroke-miterlimit="10" stroke-linecap="round"/>
    <path d="M4.20703 21.197L4.92555 20.7337" stroke="#F91C1C" stroke-width="0.3" stroke-miterlimit="10" stroke-linecap="round"/>
    <path d="M6.52734 21.6518L7.07263 21.0994" stroke="#F91C1C" stroke-width="0.3" stroke-miterlimit="10" stroke-linecap="round"/>
    <path d="M3.21276 17.1415L3.22853 17.346C3.22853 17.346 3.04031 17.5149 3.24094 17.615L3.58198 17.6857C3.58198 17.6857 3.71668 17.6683 3.82321 17.4898" stroke="#F91C1C" stroke-width="0.3" stroke-miterlimit="10" stroke-linecap="round"/>
    <path d="M8.72582 15.5341L8.13167 15.7948C8.13167 15.7948 7.82812 15.9023 7.82812 16.4404L7.84803 17.024C7.84803 17.024 7.9075 17.1152 8.07918 17.0437L8.87785 16.5937V15.5765C8.87785 15.5765 8.8308 15.4881 8.72608 15.5341" stroke="#F91C1C" stroke-width="0.3" stroke-miterlimit="10" stroke-linecap="round"/>
    <path d="M8.87802 15.5764L8.23267 15.852C8.23267 15.852 7.9586 16.0149 7.98187 16.3686L7.99583 17.0681" stroke="#F91C1C" stroke-width="0.3" stroke-miterlimit="10" stroke-linecap="round"/>
    <path d="M8.393 16.4936C8.45041 16.4936 8.49694 16.4366 8.49694 16.3664C8.49694 16.2961 8.45041 16.2392 8.393 16.2392C8.3356 16.2392 8.28906 16.2961 8.28906 16.3664C8.28906 16.4366 8.3356 16.4936 8.393 16.4936Z" stroke="#F91C1C" stroke-width="0.3" stroke-miterlimit="10" stroke-linecap="round"/>
    <path d="M8.87695 16.5936L22.9666 19.6268" stroke="#F91C1C" stroke-width="0.3" stroke-miterlimit="10" stroke-linecap="round"/>
    <path d="M26.2969 5.31963C26.2969 5.29256 26.3 5.21134 26.3587 5.13703C26.444 5.029 26.5756 5.02491 26.594 5.02466C27.6367 5.16921 28.6797 5.3135 29.7225 5.45805" stroke="#F91C1C" stroke-width="0.3" stroke-miterlimit="10" stroke-linecap="round"/>
    <path d="M10.3793 37.0352C10.3338 36.9604 10.2681 36.8411 10.2128 36.6858C10.1272 36.4452 10.1117 36.243 10.106 36.1467C10.106 36.1467 10.1252 34.9147 9.01932 25.8199C9.01932 25.8199 8.98596 25.5732 8.87763 25.4172C8.83212 25.3518 8.78946 25.312 8.77007 25.2908C8.65243 25.1608 8.56426 25.137 8.06215 24.8484C7.71259 24.6475 7.78576 24.6715 7.7387 24.6201C7.5422 24.4069 7.49075 24.1464 7.468 24.0059C7.38836 23.5151 7.12412 21.7409 6.84075 19.0683C6.83118 19.0629 6.73034 17.8307 6.72388 17.7178C6.71845 17.6231 6.69078 17.1072 6.75154 16.5334C6.78464 16.2197 6.8529 15.5746 7.15825 14.8077C7.36276 14.2941 7.70302 13.4391 8.52419 12.8149C8.95132 12.4903 9.35182 12.3471 9.52427 12.2868C10.7697 11.8524 19.401 8.92951 31.2593 4.94141" stroke="#F91C1C" stroke-width="0.3" stroke-miterlimit="10" stroke-linecap="round"/>
    <path d="M7.00529 36.005C6.95772 35.9289 6.90859 35.838 6.86541 35.732C6.78242 35.5282 6.75087 35.3423 6.73976 35.2018C6.35425 31.8179 5.96849 28.4343 5.58299 25.0505C5.5455 24.7215 5.37511 24.5757 5.33038 24.5272C5.21274 24.3992 5.12457 24.376 4.62246 24.092C4.2729 23.8943 4.22403 23.8537 4.17697 23.8034C3.98047 23.5935 3.93238 23.3399 3.90963 23.202C3.82999 22.7191 3.58876 20.794 3.30565 18.165C3.29608 18.1597 3.16318 18.0848 3.15181 17.9303C3.14121 17.7886 3.24152 17.6987 3.2529 17.689C3.23946 17.6772 3.082 17.5347 3.11354 17.3366C3.12931 17.2372 3.18542 17.1703 3.21334 17.1412C3.17715 16.7852 3.15232 16.2759 3.2167 15.6709C3.29272 14.9561 3.39614 13.9826 4.0583 13.0594C4.66538 12.2133 5.47362 11.7835 5.98918 11.5728L27.9122 4.5014" stroke="#F91C1C" stroke-width="0.3" stroke-miterlimit="10" stroke-linecap="round"/>
    <path d="M31.5733 43.6732L30.7712 43.3667C30.7712 43.3667 30.5039 43.2526 30.5039 42.907" stroke="#F91C1C" stroke-width="0.3" stroke-miterlimit="10" stroke-linecap="round"/>
    <path d="M54.4294 50.7055L53.9079 50.5392C53.9079 50.5392 53.4986 50.4772 53.502 49.8252C53.5053 49.1732 53.5087 29.7123 53.5087 29.7123" stroke="#F91C1C" stroke-width="0.3" stroke-miterlimit="10" stroke-linecap="round"/>
    <path d="M10.1699 10.4904C15.5465 8.76683 20.9232 7.04324 26.2998 5.31964C27.2107 5.4435 28.1218 5.56711 29.0327 5.69097" stroke="#F91C1C" stroke-width="0.3" stroke-miterlimit="10" stroke-linecap="round"/>
    <path d="M3.66602 17.9681L3.68024 18.3098C3.96335 20.939 4.20458 22.8641 4.28422 23.3468C4.30697 23.4847 4.28654 23.508 4.4833 23.7179C4.53036 23.7682 4.57923 23.8088 4.92879 24.0065C5.43116 24.2905 5.51907 24.3137 5.63671 24.4416C5.68118 24.4902 5.92009 24.8666 5.95758 25.1955C6.34308 28.5794 6.72884 31.963 7.11435 35.3469C7.12572 35.4873 7.15701 35.6732 7.24 35.877C7.24 35.877 7.51407 36.5551 8.1876 36.6616" stroke="#F91C1C" stroke-width="0.3" stroke-miterlimit="10" stroke-linecap="round"/>
    <path d="M9.83984 10.4174C10.8927 10.6457 12.1268 10.8125 13.1798 11.0408" stroke="#F91C1C" stroke-width="0.3" stroke-miterlimit="10" stroke-linecap="round"/>
    <path d="M3.30576 18.165L3.27344 17.9155" stroke="#F91C1C" stroke-width="0.3" stroke-miterlimit="10" stroke-linecap="round"/>
    <path d="M0.591797 15.283L3.2006 15.8324" stroke="#F91C1C" stroke-width="0.3" stroke-miterlimit="10" stroke-linecap="round"/>
    <path d="M4.87109 15.0743L6.94418 15.4556" stroke="#F91C1C" stroke-width="0.3" stroke-miterlimit="10" stroke-linecap="round"/>
    <path d="M6.12109 23.8788L7.40636 35.4993C7.4392 35.7969 7.59407 36.0719 7.84229 36.2438C7.94907 36.3176 8.08093 36.3812 8.24304 36.419L8.87831 36.5934" stroke="#F91C1C" stroke-width="0.3" stroke-miterlimit="10" stroke-linecap="round"/>
    <path d="M3.85578 17.8341L3.70168 17.9564C3.70168 17.9564 3.16828 18.0246 3.27351 17.8341L3.45812 17.6602" stroke="#F91C1C" stroke-width="0.3" stroke-miterlimit="10" stroke-linecap="round"/>
    <path d="M9.78125 24.4064L10.9649 36.788C10.9838 36.9854 11.0877 37.1672 11.254 37.2786C11.3504 37.3429 11.4789 37.4057 11.6496 37.4527L12.3109 37.6545" stroke="#F91C1C" stroke-width="0.3" stroke-miterlimit="10" stroke-linecap="round"/>
    <path d="M25.1604 23.4467C25.1604 23.4467 24.6457 24.1607 24.695 24.6104C24.7421 25.0377 24.7444 25.9852 24.7444 26.0797C24.7444 26.0838 24.7408 26.0866 24.7367 26.0856L23.8767 25.8948C23.8697 25.8932 23.8633 25.8986 23.8633 25.9055L23.9124 27.9064C23.9124 27.9064 23.9222 28.2688 24.2886 28.3958C24.655 28.5227 27.0019 29.1096 27.0019 29.1096C27.0019 29.1096 27.4179 29.3052 27.4375 28.7674C27.4574 28.2295 27.3881 26.733 27.3881 26.733L26.4765 26.5021C26.4674 26.4998 26.461 26.4916 26.461 26.4824V24.767" stroke="#F91C1C" stroke-width="0.3" stroke-miterlimit="10" stroke-linecap="round"/>
    <path d="M24.7003 24.4388C24.7003 24.4388 24.4777 24.2389 24.5075 23.9554L24.5046 23.4737C24.5046 23.4737 24.4801 23.2561 24.7203 23.3149L26.2434 23.6719C26.2434 23.6719 26.4745 23.6916 26.4184 24.0468L26.4272 24.5195C26.4272 24.5195 26.4252 25.064 26.8078 25.1782C27.1907 25.2923 27.3795 25.3339 27.3795 25.3339" stroke="#F91C1C" stroke-width="0.3" stroke-miterlimit="10" stroke-linecap="round"/>
    <path d="M26.4609 26.4982L27.4067 25.7035" stroke="#F91C1C" stroke-width="0.3" stroke-miterlimit="10" stroke-linecap="round"/>
    <path d="M23.8633 25.8915L24.7294 25.1777" stroke="#F91C1C" stroke-width="0.3" stroke-miterlimit="10" stroke-linecap="round"/>
    <path d="M25.2949 29.4324V28.6741" stroke="#F91C1C" stroke-width="0.3" stroke-miterlimit="10" stroke-linecap="round"/>
    <path d="M23.3971 22.2614C23.3971 22.2614 23.796 27.6546 23.855 28.0786C23.9062 28.4473 24.227 28.7561 24.2803 28.8054C24.2849 28.8097 24.2896 28.8136 24.2948 28.8174C24.3643 28.8682 24.9303 29.2786 25.2416 29.4303C25.2607 29.4398 25.2579 29.4674 25.2372 29.473C25.1524 29.4957 24.9854 29.523 24.8191 29.4523C24.5241 29.3266 23.8932 28.869 23.8195 28.8151C23.8144 28.8113 23.8097 28.8074 23.8051 28.8031C23.7518 28.7541 23.4309 28.445 23.3797 28.0763C23.3208 27.6523 22.918 22.2548 22.918 22.2548" stroke="#F91C1C" stroke-width="0.3" stroke-miterlimit="10" stroke-linecap="round"/>
    <path d="M29.5988 30.5155L29.3555 24.6927" stroke="#F91C1C" stroke-width="0.3" stroke-miterlimit="10" stroke-linecap="round"/>
    <path d="M27.2779 23.0833C27.2779 23.0833 27.0701 23.1877 27.2779 23.2853C27.4165 23.3504 27.5582 23.3384 27.6373 23.3231C27.6712 23.3164 27.7033 23.3409 27.7058 23.3752C27.7524 24.0042 28.1074 28.7781 28.1624 29.1739C28.2136 29.543 28.535 29.852 28.588 29.9008C28.5927 29.9051 28.5973 29.9089 28.6022 29.9125C28.67 29.9618 29.2145 30.3569 29.5297 30.5157C29.5558 30.529 29.5514 30.5668 29.523 30.5737C29.4332 30.5947 29.2797 30.6128 29.1269 30.5477C28.8316 30.4218 28.2002 29.9638 28.127 29.9105C28.1219 29.9066 28.1172 29.9031 28.1128 29.8987C28.0598 29.8499 27.7387 29.5409 27.6872 29.1719C27.6283 28.748 27.2254 23.3049 27.2254 23.3049" stroke="#F91C1C" stroke-width="0.3" stroke-miterlimit="10" stroke-linecap="round"/>
    <path d="M27.7031 23.3067L46.4803 27.5055C46.4803 27.5055 46.6585 27.8674 47.2725 27.5836" stroke="#F91C1C" stroke-width="0.3" stroke-miterlimit="10" stroke-linecap="round"/>
    <path d="M27.7773 24.3259L46.4984 28.6741" stroke="#F91C1C" stroke-width="0.3" stroke-miterlimit="10" stroke-linecap="round"/>
    <path d="M31.4217 30.9323L28.966 32.4058C28.966 32.4058 27.7909 32.6666 27.6326 32.484C27.4741 32.3014 21.7045 30.5408 19.1828 30.1498C19.1828 30.1498 18.6003 30.0634 18.9667 29.5547L21.7443 28.2719C21.7443 28.2719 22.3385 28.2962 22.3912 29.0861C22.444 29.876 21.8765 30.1107 21.8765 30.1107L20.9348 30.5065" stroke="#F91C1C" stroke-width="0.3" stroke-miterlimit="10" stroke-linecap="round"/>
    <path d="M21.6845 29.4975C21.7465 29.4975 21.7967 29.4114 21.7967 29.3052C21.7967 29.199 21.7465 29.1129 21.6845 29.1129C21.6225 29.1129 21.5723 29.199 21.5723 29.3052C21.5723 29.4114 21.6225 29.4975 21.6845 29.4975Z" stroke="#F91C1C" stroke-width="0.3" stroke-miterlimit="10" stroke-linecap="round"/>
    <path d="M21.7426 28.2719L21.3594 28.1774C21.2661 28.1544 21.167 28.1659 21.0817 28.2096L17.5044 30.0456C17.5044 30.0456 17.062 30.2923 16.7584 30.0522C16.7584 30.0522 16.5966 29.9217 16.7155 29.8012L19.6429 28.3554" stroke="#F91C1C" stroke-width="0.3" stroke-miterlimit="10" stroke-linecap="round"/>
    <path d="M19.626 28.0702L16.7442 29.5491C16.7442 29.5491 16.3018 29.7958 15.9983 29.5557C15.9892 29.544 15.9321 29.4684 15.9543 29.3739C15.9652 29.3277 15.9905 29.296 16.0058 29.2799C17.0211 28.7786 17.5504 28.5125 18.5657 28.0112" stroke="#F91C1C" stroke-width="0.3" stroke-miterlimit="10" stroke-linecap="round"/>
    <path d="M17.4766 28.2987L17.3347 26.582C17.3347 26.582 17.3181 26.2983 16.8879 26.166L8.02983 23.9722C7.99364 23.9633 7.95847 23.9904 7.95899 24.0274C7.96106 24.1888 7.99519 24.576 8.26382 24.7213L9.06922 25.194C9.06922 25.194 9.53126 25.4417 9.59745 26.2242L10.5807 36.5073C10.5838 36.5408 10.5864 36.574 10.5887 36.6074C10.6001 36.7627 10.7134 37.5026 11.8451 37.7848" stroke="#F91C1C" stroke-width="0.3" stroke-miterlimit="10" stroke-linecap="round"/>
    <path d="M18.5512 27.769L15.9799 29.0376C15.9799 29.0376 15.5375 29.2843 15.234 29.0442C15.2208 29.0291 15.1908 28.9906 15.1895 28.9369C15.1879 28.8639 15.2402 28.7934 15.3216 28.761C16.1606 28.3375 16.7253 28.0604 17.4012 27.7259" stroke="#F91C1C" stroke-width="0.3" stroke-miterlimit="10" stroke-linecap="round"/>
    <path d="M32.7298 31.1632L29.276 33.3122C29.276 33.3122 29.0681 33.4524 28.4804 33.2862C28.4804 33.2862 28.2609 33.1896 28.3949 33.0124L31.4717 31.1532" stroke="#F91C1C" stroke-width="0.3" stroke-miterlimit="10" stroke-linecap="round"/>
    <path d="M34.0385 31.5281C32.5818 32.4344 32.3811 32.5593 30.9245 33.4659C30.843 33.4958 30.7096 33.5334 30.5418 33.5308C30.3556 33.5277 30.2114 33.4764 30.1289 33.4399C30.1289 33.4399 29.9094 33.3434 30.0433 33.1661L32.746 31.5329" stroke="#F91C1C" stroke-width="0.3" stroke-miterlimit="10" stroke-linecap="round"/>
    <path d="M36.2069 31.8782L35.6598 31.7904C35.6042 31.7876 35.3932 31.8542 35.3459 31.8833C34.0441 32.6873 34.1214 32.6395 32.7684 33.4754C32.6332 33.5267 32.4393 33.5834 32.2006 33.5993C32.0116 33.6118 31.8495 33.5952 31.7254 33.5732C31.667 33.5653 31.6202 33.5232 31.6083 33.4688C31.5925 33.3965 31.6481 33.3444 31.6507 33.3418C32.8664 32.6071 32.8429 32.5974 34.0586 31.8626" stroke="#F91C1C" stroke-width="0.3" stroke-miterlimit="10" stroke-linecap="round"/>
    <path d="M17.3871 27.4169L14.8913 28.6527C14.8913 28.6527 14.5151 28.9139 14.7625 29.3049C14.7625 29.3049 15.9012 30.1477 16.1686 30.1566L18.0599 30.8554C18.0599 30.8554 23.7372 32.9513 26.4605 33.1487L28.9127 33.6031L31.8964 33.8791C31.8964 33.8791 32.2793 33.9836 32.9921 33.7226L35.7646 31.9796C35.7646 31.9796 36.306 31.6494 36.4774 32.1382C36.6491 32.627 36.6623 33.4746 36.4115 33.7223C36.1607 33.9701 33.5333 35.5741 33.5333 35.5741C33.5333 35.5741 32.6488 36.2131 31.7906 35.9914C31.7906 35.9914 27.6582 35.7958 26.7075 35.261C26.7075 35.261 18.7065 33.4613 18.2313 32.8875L16.462 32.262L15.102 31.2964C15.102 31.2964 14.8512 31.1856 14.8644 30.7977L14.6777 29.0697" stroke="#F91C1C" stroke-width="0.3" stroke-miterlimit="10" stroke-linecap="round"/>
    <path d="M19.2282 30.1569C19.2282 30.1569 18.1322 30.4792 18.0598 30.8557C17.9872 31.2321 17.6637 32.0861 18.2315 32.8883" stroke="#F91C1C" stroke-width="0.3" stroke-miterlimit="10" stroke-linecap="round"/>
    <path d="M27.6312 32.484C27.6312 32.484 26.6184 32.8375 26.5339 33.1628C26.4493 33.4882 26.1921 34.8966 26.7068 35.2618" stroke="#F91C1C" stroke-width="0.3" stroke-miterlimit="10" stroke-linecap="round"/>
    <path d="M18.6938 30.7039L19.2681 30.3778L22.998 31.2775L22.1595 31.8317C22.1595 31.8317 18.6475 30.8536 18.6938 30.7037V30.7039Z" stroke="#F91C1C" stroke-width="0.3" stroke-miterlimit="10" stroke-linecap="round"/>
    <path d="M23.5067 31.4211L22.6816 31.9799C22.6816 31.9799 26.3521 33.0706 26.4511 32.9404L27.0145 32.5489C27.0145 32.5489 25.163 31.8414 23.5069 31.4211H23.5067Z" stroke="#F91C1C" stroke-width="0.3" stroke-miterlimit="10" stroke-linecap="round"/>
    <path d="M23.0469 32.0879L23.4657 31.832L23.5055 31.4211" stroke="#F91C1C" stroke-width="0.3" stroke-miterlimit="10" stroke-linecap="round"/>
    <path d="M23.4668 31.832L26.6729 32.7862" stroke="#F91C1C" stroke-width="0.3" stroke-miterlimit="10" stroke-linecap="round"/>
    <path d="M19.2677 30.3778L19.208 30.73L19.0117 30.8697" stroke="#F91C1C" stroke-width="0.3" stroke-miterlimit="10" stroke-linecap="round"/>
    <path d="M19.209 30.73L22.571 31.5602" stroke="#F91C1C" stroke-width="0.3" stroke-miterlimit="10" stroke-linecap="round"/>
    <path d="M16.1776 28.9385L16.137 28.676C16.137 28.676 16.114 28.4476 16.4835 28.487L16.8749 28.5884" stroke="#F91C1C" stroke-width="0.3" stroke-miterlimit="10" stroke-linecap="round"/>
    <path d="M17.9626 28.9058L17.6143 28.8157C17.2446 28.7766 17.2679 29.0046 17.2679 29.0046L17.3061 29.2526" stroke="#F91C1C" stroke-width="0.3" stroke-miterlimit="10" stroke-linecap="round"/>
    <path d="M18.3045 29.6052L18.264 29.3427C18.264 29.3427 18.2409 29.1144 18.6104 29.1537L19.0019 29.2551" stroke="#F91C1C" stroke-width="0.3" stroke-miterlimit="10" stroke-linecap="round"/>
    <path d="M30.0318 32.8423L29.9532 32.5228C29.9532 32.5228 29.8966 32.2276 30.3837 32.2368L30.8667 32.3182" stroke="#F91C1C" stroke-width="0.3" stroke-miterlimit="10" stroke-linecap="round"/>
    <path d="M31.3665 33.2032L31.2833 32.8653C31.2833 32.8653 31.2266 32.5701 31.7138 32.5793L32.2363 32.6674" stroke="#F91C1C" stroke-width="0.3" stroke-miterlimit="10" stroke-linecap="round"/>
    <path d="M32.6185 33.5152L32.5352 33.1774C32.5352 33.1774 32.4786 32.8821 32.9657 32.8913L33.4882 32.9794" stroke="#F91C1C" stroke-width="0.3" stroke-miterlimit="10" stroke-linecap="round"/>
    <path d="M18.1117 27.9662L17.7032 22.0944C17.7026 22.088 17.7086 22.0832 17.7148 22.0842L18.1386 22.1649C18.1693 22.1708 18.1921 22.1963 18.1941 22.2272L18.6016 28.5947" stroke="#F91C1C" stroke-width="0.3" stroke-miterlimit="10" stroke-linecap="round"/>
    <path d="M19.1904 28.2934L18.7754 22.3258C18.7749 22.3173 18.7824 22.3107 18.7909 22.3122L19.2121 22.3924C19.2418 22.398 19.2638 22.4228 19.2659 22.4527L19.6804 28.929" stroke="#F91C1C" stroke-width="0.3" stroke-miterlimit="10" stroke-linecap="round"/>
    <path d="M20.3379 28.5912L19.918 22.5561C19.9175 22.5505 19.9229 22.5462 19.9283 22.5475L22.9951 23.2513" stroke="#F91C1C" stroke-width="0.3" stroke-miterlimit="10" stroke-linecap="round"/>
    <path d="M31.5066 31.8935L31.1426 25.1074" stroke="#F91C1C" stroke-width="0.3" stroke-miterlimit="10" stroke-linecap="round"/>
    <path d="M32.0944 31.5575L31.8105 25.2952" stroke="#F91C1C" stroke-width="0.3" stroke-miterlimit="10" stroke-linecap="round"/>
    <path d="M33.4533 31.8935L33.1348 25.5924" stroke="#F91C1C" stroke-width="0.3" stroke-miterlimit="10" stroke-linecap="round"/>
    <path d="M34.1005 32.6314L33.7168 25.7053" stroke="#F91C1C" stroke-width="0.3" stroke-miterlimit="10" stroke-linecap="round"/>
    <path d="M34.7958 32.222L34.4863 25.8917" stroke="#F91C1C" stroke-width="0.3" stroke-miterlimit="10" stroke-linecap="round"/>
    <path d="M36.4659 33.0024C36.4659 33.5173 36.19 33.8925 35.8453 33.8925C35.5007 33.8925 35.3965 33.5988 35.3965 33.0839C35.3965 32.5691 35.6395 32.1124 35.9839 32.1124C36.3283 32.1124 36.4659 32.4876 36.4659 33.0024Z" stroke="#F91C1C" stroke-width="0.3" stroke-miterlimit="10" stroke-linecap="round"/>
    <path d="M36.137 33.0913C36.137 33.2164 36.0835 33.3076 36.0168 33.3076C35.9501 33.3076 35.9297 33.2364 35.9297 33.1112C35.9297 32.9861 35.9767 32.8752 36.0434 32.8752C36.1102 32.8752 36.1368 32.9664 36.1368 33.0916L36.137 33.0913Z" stroke="#F91C1C" stroke-width="0.3" stroke-miterlimit="10" stroke-linecap="round"/>
    <path d="M24.5664 19.2897L27.5085 19.9614" stroke="#F91C1C" stroke-width="0.3" stroke-miterlimit="10" stroke-linecap="round"/>
    <path d="M28.8563 20.8711C28.942 20.8711 29.0114 20.8025 29.0114 20.7179C29.0114 20.6332 28.942 20.5646 28.8563 20.5646C28.7706 20.5646 28.7012 20.6332 28.7012 20.7179C28.7012 20.8025 28.7706 20.8711 28.8563 20.8711Z" stroke="#F91C1C" stroke-width="0.3" stroke-miterlimit="10" stroke-linecap="round"/>
    <path d="M30.6747 16.4437C30.6747 16.4437 27.3921 17.4742 27.766 22.3092" stroke="#F91C1C" stroke-width="0.3" stroke-miterlimit="10" stroke-linecap="round"/>
    <path d="M21.2402 30.3778L21.7452 30.5341C21.8054 30.5614 21.8742 30.5183 21.8747 30.4526L21.8765 30.1104" stroke="#F91C1C" stroke-width="0.3" stroke-miterlimit="10" stroke-linecap="round"/>
    <path d="M21.877 28.2992L21.6309 22.9377" stroke="#F91C1C" stroke-width="0.3" stroke-miterlimit="10" stroke-linecap="round"/>
    <path d="M30.3353 43.2898C30.3353 43.2898 30.205 43.1072 30.2247 42.8789" stroke="#F91C1C" stroke-width="0.3" stroke-miterlimit="10" stroke-linecap="round"/>
    <path d="M60.8078 30.704L59.8473 49.4623C59.7682 50.8457 58.877 51.3118 58.877 51.3118" stroke="#F91C1C" stroke-width="0.3" stroke-miterlimit="10" stroke-linecap="round"/>
    <path d="M62.5066 29.5419C62.5066 29.5419 61.0605 31.9492 56.3603 30.2588L54.0977 29.8675" stroke="#F91C1C" stroke-width="0.3" stroke-miterlimit="10" stroke-linecap="round"/>
    <path d="M53.9844 28.6101C53.9844 28.6101 54.3673 28.8675 55.001 28.582L56.4334 27.9039" stroke="#F91C1C" stroke-width="0.3" stroke-miterlimit="10" stroke-linecap="round"/>
    <path d="M54.832 27.4869L56.0834 27.7011C56.0834 27.7011 56.486 27.7369 56.4333 28.1902C56.3805 28.6433 56.3673 28.7674 56.3673 28.7674" stroke="#F91C1C" stroke-width="0.3" stroke-miterlimit="10" stroke-linecap="round"/>
    <path d="M56.084 27.7012L58.3722 28.1511C58.3722 28.1511 60.1402 28.416 61.0746 27.9262C61.9591 27.4624 62.4609 27.0527 62.4609 27.0527" stroke="#F91C1C" stroke-width="0.3" stroke-miterlimit="10" stroke-linecap="round"/>
    <path d="M60.5664 51.8108C60.5664 51.8108 62.5699 52.153 62.7455 49.746L63.9519 28.6777" stroke="#F91C1C" stroke-width="0.3" stroke-miterlimit="10" stroke-linecap="round"/>
    <path d="M62.1426 51.312C62.1426 51.312 62.7287 51.0967 62.9268 49.3851L64.105 29.6198L66.0754 28.1514L64.7584 46.5685" stroke="#F91C1C" stroke-width="0.3" stroke-miterlimit="10" stroke-linecap="round"/>
    <path d="M65.1014 46.9398C65.1014 46.9398 64.5504 46.1065 63.1426 45.7571" stroke="#F91C1C" stroke-width="0.3" stroke-miterlimit="10" stroke-linecap="round"/>
    <path d="M68.7852 23.3711V22.6371C68.7852 22.6371 68.7937 22.3186 69.0116 22.1817C69.2296 22.0448 69.6487 21.7805 69.6487 21.7805" stroke="#F91C1C" stroke-width="0.3" stroke-miterlimit="10" stroke-linecap="round"/>
    <path d="M77.4852 17.8129C77.4852 17.8129 78.4374 18.0506 78.7717 17.8129C78.9643 17.676 79.0373 16.1403 79.0373 16.1403C79.0373 16.1403 79.1006 15.9161 78.7717 15.7542C78.4431 15.5925 76.8711 14.8785 76.8711 14.8785" stroke="#F91C1C" stroke-width="0.3" stroke-miterlimit="10" stroke-linecap="round"/>
    <path d="M41.0059 27.3983C41.0514 27.4769 41.2751 27.8809 41.1264 28.3371C40.957 28.8562 40.4058 29.1339 39.9316 29.1259C39.302 29.1155 38.9302 28.6047 38.816 28.4479C38.7865 28.4075 38.7596 28.3667 38.735 28.3261C38.4654 27.8789 38.4351 27.329 38.6368 26.8479" stroke="#F91C1C" stroke-width="0.3" stroke-miterlimit="10" stroke-linecap="round"/>
    <path d="M39.0628 27.2562C39.0628 27.2562 38.8203 27.5984 39.038 27.9506" stroke="#F91C1C" stroke-width="0.3" stroke-miterlimit="10" stroke-linecap="round"/>
    <path d="M39.6973 28.4739C39.6973 28.4739 40.1329 28.5178 40.2172 28.2489" stroke="#F91C1C" stroke-width="0.3" stroke-miterlimit="10" stroke-linecap="round"/>
    <path d="M40.712 27.3745C40.7484 27.444 40.9276 27.8005 40.8084 28.203C40.6727 28.6612 40.2311 28.9061 39.8512 28.8992C39.3471 28.89 39.0489 28.4392 38.9574 28.3008C38.9339 28.2651 38.9122 28.2293 38.8925 28.1933C38.6766 27.7985 38.6523 27.3135 38.8137 26.889" stroke="#F91C1C" stroke-width="0.3" stroke-miterlimit="10" stroke-linecap="round"/>
    <path d="M40.2155 27.5415C40.2155 27.5415 40.1204 27.1929 39.8398 27.1278" stroke="#F91C1C" stroke-width="0.3" stroke-miterlimit="10" stroke-linecap="round"/>
    <path d="M28.9122 33.6033C28.3931 33.6368 27.9672 33.9905 27.8692 34.4402C27.7498 34.9885 28.1363 35.5943 28.775 35.7332" stroke="#F91C1C" stroke-width="0.3" stroke-miterlimit="10" stroke-linecap="round"/>
    <path d="M16.168 30.1572C16.6843 30.6186 16.9268 31.2397 16.7655 31.7669C16.728 31.8897 16.6478 32.0746 16.4619 32.2628" stroke="#F91C1C" stroke-width="0.3" stroke-miterlimit="10" stroke-linecap="round"/>
    <path d="M27.4502 42.3822L26.6482 42.0757C26.6482 42.0757 26.3809 41.9616 26.3809 41.616" stroke="#F91C1C" stroke-width="0.3" stroke-miterlimit="10" stroke-linecap="round"/>
    <path d="M26.2123 41.9989C26.2123 41.9989 26.082 41.8163 26.1016 41.588" stroke="#F91C1C" stroke-width="0.3" stroke-miterlimit="10" stroke-linecap="round"/>
    <path d="M27.2402 29.1336L27.6692 28.9987" stroke="#F91C1C" stroke-width="0.3" stroke-miterlimit="10" stroke-linecap="round"/>
    <path d="M6.77539 18.379C6.77539 18.379 6.93854 18.4878 7.22579 18.439L7.18623 17.8912" stroke="#F91C1C" stroke-width="0.3" stroke-miterlimit="10" stroke-linecap="round"/>
    <path d="M7.22656 18.4388L22.8784 21.9601L22.8916 21.471" stroke="#F91C1C" stroke-width="0.3" stroke-miterlimit="10" stroke-linecap="round"/>
    <path d="M22.8789 21.9601C22.8789 21.9601 22.8856 22.1902 23.4071 22.0185C23.4071 22.0185 22.8574 17.9548 25.1645 15.96C25.3809 15.7728 25.6284 15.6237 25.8936 15.5139L29.0511 14.204C29.0511 14.204 29.0364 13.7589 29.7145 13.9203L44.5379 7.89547C44.5379 7.89547 44.434 7.47971 45.2394 7.59999L46.3566 7.21513C46.5624 7.14387 46.783 7.12344 46.9989 7.15562L47.8255 7.27923" stroke="#F91C1C" stroke-width="0.3" stroke-miterlimit="10" stroke-linecap="round"/>
    <path d="M51.7668 7.86586L51.3047 7.7844C51.3047 7.7844 50.9877 7.65083 50.4993 7.82526C50.0109 7.99969 30.6755 16.4437 30.6755 16.4437C30.6755 16.4437 29.012 17.3044 29.1309 20.9038L27.9129 22.1263C27.9129 22.1263 27.7148 22.2241 27.7246 22.5763L27.7445 23.1111C27.7445 23.1111 27.6455 23.2194 27.4904 23.1443L27.3153 23.0881C27.3153 23.0881 27.1271 22.9642 27.2988 22.8437C27.2988 22.8437 26.9803 19.3671 28.7612 17.1412C29.1208 16.6917 29.5901 16.3396 30.1217 16.1102L49.8558 7.59235" stroke="#F91C1C" stroke-width="0.3" stroke-miterlimit="10" stroke-linecap="round"/>
    <path d="M29.7148 13.9203L33.5603 14.6257" stroke="#F91C1C" stroke-width="0.3" stroke-miterlimit="10" stroke-linecap="round"/>
    <path d="M28.9883 14.2303L32.8014 14.9533" stroke="#F91C1C" stroke-width="0.3" stroke-miterlimit="10" stroke-linecap="round"/>
    <path d="M45.2383 7.59973L48.6235 8.12327" stroke="#F91C1C" stroke-width="0.3" stroke-miterlimit="10" stroke-linecap="round"/>
    <path d="M44.5371 7.8952L47.912 8.43049" stroke="#F91C1C" stroke-width="0.3" stroke-miterlimit="10" stroke-linecap="round"/>
    <path d="M26.4611 15.2787C26.4611 15.2787 24.6651 16.2775 24.5661 19.29C24.5661 19.29 23.6948 19.7594 23.5859 21.0507L23.7444 23.8576C23.7444 23.8576 23.8137 24.4151 24.2791 24.6498L24.6752 24.7673" stroke="#F91C1C" stroke-width="0.3" stroke-miterlimit="10" stroke-linecap="round"/>
    <path d="M27.3437 20.9883C27.3437 20.9883 27.1508 21.0014 27.1211 21.7936L27.2271 24.7198C27.2271 24.7198 27.2413 24.9869 27.3613 25.0983" stroke="#F91C1C" stroke-width="0.3" stroke-miterlimit="10" stroke-linecap="round"/>
    <path d="M23.4062 22.0185L23.634 21.9279" stroke="#F91C1C" stroke-width="0.3" stroke-miterlimit="10" stroke-linecap="round"/>
    <path d="M23.627 22.1472L23.3811 22.2701C23.3651 22.278 23.3503 22.288 23.3374 22.3C23.2873 22.3462 23.1228 22.4644 22.9196 22.2548C22.894 22.2282 22.8604 22.2101 22.8242 22.2019L7.29882 18.6477C7.27115 18.6413 7.24245 18.6411 7.21453 18.6469C7.12093 18.6663 6.88694 18.6985 6.79102 18.5593" stroke="#F91C1C" stroke-width="0.3" stroke-miterlimit="10" stroke-linecap="round"/>
    <path d="M8.26371 19.9778L16.4229 21.8686C16.4229 21.8686 16.8849 21.9338 16.8454 22.7163L16.941 25.2755C16.941 25.2755 16.9434 25.6902 16.624 25.6177L8.57371 23.642C8.57371 23.642 8.27017 23.5149 8.26345 22.9964L7.91027 20.2528C7.91027 20.2528 7.84252 19.8797 8.26345 19.9773L8.26371 19.9778Z" stroke="#F91C1C" stroke-width="0.3" stroke-miterlimit="10" stroke-linecap="round"/>
    <path d="M35.6113 34.2763L36.0219 34.3442C36.0822 34.3542 36.1372 34.3082 36.1372 34.2479V33.9287" stroke="#F91C1C" stroke-width="0.3" stroke-miterlimit="10" stroke-linecap="round"/>
    <path d="M36.0504 31.8639L35.9473 26.2314" stroke="#F91C1C" stroke-width="0.3" stroke-miterlimit="10" stroke-linecap="round"/>
    <path d="M67.0257 10.1945L49.2969 19.8603C49.2969 19.8603 46.2405 21.5946 46.4978 27.2935C46.4978 27.2935 46.4846 27.5673 47.0656 27.4631C47.0656 27.4631 46.7354 23.263 48.8664 20.8698C49.0663 20.6453 49.8295 20.0896 50.0888 19.942L52.2162 18.782C52.2162 18.782 52.2498 18.2562 52.9665 18.3515L65.5576 11.4162C65.5576 11.4162 65.4433 10.9272 66.1662 11.0094L67.437 10.399C67.64 10.2994 67.9916 10.2815 68.2533 10.3127L68.8133 10.4284" stroke="#F91C1C" stroke-width="0.3" stroke-miterlimit="10" stroke-linecap="round"/>
    <path d="M51.6072 28.396C51.6072 28.396 51.3525 25.2842 52.9142 22.7033C53.2296 22.182 53.8016 21.3265 54.3202 21.021L71.5944 10.8539" stroke="#F91C1C" stroke-width="0.3" stroke-miterlimit="10" stroke-linecap="round"/>
    <path d="M73.3127 11.1358L72.8277 11.1013C72.8277 11.1013 72.4856 10.9946 72.0045 11.2364C71.5233 11.4783 54.8156 21.2756 54.8156 21.2756C54.8156 21.2756 51.845 23.1111 52.1817 28.5526C51.8936 28.6466 51.6677 28.6466 51.6074 28.3963" stroke="#F91C1C" stroke-width="0.3" stroke-miterlimit="10" stroke-linecap="round"/>
    <path d="M52.9668 18.3517L57.4998 19.1846" stroke="#F91C1C" stroke-width="0.3" stroke-miterlimit="10" stroke-linecap="round"/>
    <path d="M56.7306 19.6394L52.2168 18.782" stroke="#F91C1C" stroke-width="0.3" stroke-miterlimit="10" stroke-linecap="round"/>
    <path d="M12.5347 11.2472C11.5988 11.0372 10.5043 10.8937 9.56836 10.6838" stroke="#F91C1C" stroke-width="0.3" stroke-miterlimit="10" stroke-linecap="round"/>
    <path d="M70.2792 11.6323L66.168 11.0094" stroke="#F91C1C" stroke-width="0.3" stroke-miterlimit="10" stroke-linecap="round"/>
    <path d="M65.5586 11.4165L69.5967 12.0302" stroke="#F91C1C" stroke-width="0.3" stroke-miterlimit="10" stroke-linecap="round"/>
    <path d="M47.2709 27.3459L47.0664 27.4634" stroke="#F91C1C" stroke-width="0.3" stroke-miterlimit="10" stroke-linecap="round"/>
    <path d="M27.7441 23.1108L46.4986 27.2938" stroke="#F91C1C" stroke-width="0.3" stroke-miterlimit="10" stroke-linecap="round"/>
    <path d="M27.7246 22.576L46.4837 26.6742" stroke="#F91C1C" stroke-width="0.3" stroke-miterlimit="10" stroke-linecap="round"/>
    <path d="M29.1309 20.9036L46.628 24.6927" stroke="#F91C1C" stroke-width="0.3" stroke-miterlimit="10" stroke-linecap="round"/>
    <path d="M55.451 20.9036C55.451 20.9036 53.3319 22.7814 53.5101 26.3221C53.5101 26.3221 53.0941 26.6482 52.9061 27.3459L52.2923 28.1121C52.2923 28.1121 52.0942 28.3562 52.2328 28.6742L53.9954 29.0608C53.9954 29.0608 53.8764 28.6801 54.0846 28.3961L54.7974 27.5546C54.7974 27.5546 54.9756 27.3068 54.6687 27.2938L53.2725 26.9677C53.2725 26.9677 52.9604 26.935 52.9604 27.1712" stroke="#F91C1C" stroke-width="0.3" stroke-miterlimit="10" stroke-linecap="round"/>
    <path d="M54.1448 27.7009C54.0985 27.9062 53.7422 28.0464 53.3427 27.9389C53.3298 27.9353 53.1178 27.8163 53.1315 27.6715C53.1517 27.4595 53.6551 27.2276 53.97 27.4041C54.0509 27.4493 54.1714 27.5834 54.145 27.7009H54.1448Z" stroke="#F91C1C" stroke-width="0.3" stroke-miterlimit="10" stroke-linecap="round"/>
    <path d="M53.9941 29.0608C53.9941 29.0608 54.4396 29.2237 55.245 29.0281L56.3671 28.7673C56.3671 28.7673 60.549 30.1464 62.589 28.0632L63.5891 28.2785C63.5891 28.2785 63.7773 28.3079 63.9852 28.1611L64.5131 27.7524" stroke="#F91C1C" stroke-width="0.3" stroke-miterlimit="10" stroke-linecap="round"/>
    <path d="M63.6811 28.2783C64.3394 23.3501 60.3155 21.9488 60.0053 21.8484C60.0024 21.8474 60.0006 21.8512 60.0032 21.8528C60.195 21.9756 61.9669 23.2038 61.442 26.3414C61.442 26.3414 62.9075 26.6936 62.5908 28.0627" stroke="#F91C1C" stroke-width="0.3" stroke-miterlimit="10" stroke-linecap="round"/>
    <path d="M60.2793 21.7154C60.2793 21.7154 64.6587 23.026 63.974 28.1511" stroke="#F91C1C" stroke-width="0.3" stroke-miterlimit="10" stroke-linecap="round"/>
    <path d="M61.4412 26.3417L61.0285 26.6382C60.68 26.8885 60.2782 27.057 59.8534 27.128C59.2915 27.2217 58.4419 27.259 57.3022 27.0264L53.5098 26.3223" stroke="#F91C1C" stroke-width="0.3" stroke-miterlimit="10" stroke-linecap="round"/>
    <path d="M48.3867 24.3259L51.947 25.0604" stroke="#F91C1C" stroke-width="0.3" stroke-miterlimit="10" stroke-linecap="round"/>
    <path d="M46.4785 27.5057L46.4984 33.8927C46.4984 33.8927 46.5907 34.5968 47.1683 34.8708C47.7459 35.1446 47.726 35.6336 47.726 35.6336L47.9735 48.7007" stroke="#F91C1C" stroke-width="0.3" stroke-miterlimit="10" stroke-linecap="round"/>
    <path d="M49.3505 49.4699C49.3505 49.4699 48.4329 49.5938 48.3866 48.3158C48.353 47.3898 48.2514 35.6921 48.2514 35.6921C48.2514 35.6921 48.248 35.3205 47.7265 35.0171C47.1073 34.657 47.0664 33.9999 47.0664 33.9999L47.1137 27.6459" stroke="#F91C1C" stroke-width="0.3" stroke-miterlimit="10" stroke-linecap="round"/>
    <path d="M48.8559 28.9043C48.8559 28.9043 48.4135 28.9564 48.3476 30.5147L47.7666 30.3061C47.2599 30.1082 47.2715 29.4756 47.2715 29.4756V26.3548C47.331 24.9724 48.3872 24.326 48.3872 24.326C48.4531 21.0992 50.6456 19.6394 50.6456 19.6394" stroke="#F91C1C" stroke-width="0.3" stroke-miterlimit="10" stroke-linecap="round"/>
    <path d="M48.3474 30.515V31.8046C48.3474 31.8069 48.3451 31.8087 48.343 31.8082L47.2806 31.5475C47.277 31.5467 47.2762 31.5419 47.2791 31.5398L48.3011 30.8311" stroke="#F91C1C" stroke-width="0.3" stroke-miterlimit="10" stroke-linecap="round"/>
    <path d="M47.2715 31.5452V33.8436C47.2715 33.8436 47.2715 34.2252 47.6283 34.3243L50.846 35.1591C50.846 35.1591 51.4153 35.345 51.4549 34.9244C51.4898 34.5536 51.4939 33.0356 51.4944 32.6809C51.4944 32.6367 51.4647 32.5984 51.4218 32.5864L50.4615 32.3213C50.4545 32.3192 50.4496 32.3131 50.4496 32.3059C50.4481 32.1435 50.4349 30.3849 50.5388 30.259" stroke="#F91C1C" stroke-width="0.3" stroke-miterlimit="10" stroke-linecap="round"/>
    <path d="M50.4492 32.3177L51.494 31.3102" stroke="#F91C1C" stroke-width="0.3" stroke-miterlimit="10" stroke-linecap="round"/>
    <path d="M51.564 27.8773C51.564 27.8773 51.3016 30.7006 51.564 31.1621L50.8362 30.9583C50.8362 30.9583 50.4551 30.6258 50.5541 29.9117C50.6532 29.1977 50.262 29.2564 50.262 29.2564L48.5488 28.8212C48.5488 28.8212 48.1873 28.7186 48.2122 29.1244C48.237 29.5302 48.1886 30.0621 48.3738 30.1311" stroke="#F91C1C" stroke-width="0.3" stroke-miterlimit="10" stroke-linecap="round"/>
    <path d="M52.8574 50.3528L52.7618 37.3315C52.7618 37.3315 52.7437 36.7094 51.945 36.1031C51.5122 35.7744 51.567 35.0167 51.567 35.0167L51.6117 29.0782C51.6117 29.0782 51.4393 28.8136 51.7275 28.6777" stroke="#F91C1C" stroke-width="0.3" stroke-miterlimit="10" stroke-linecap="round"/>
    <path d="M51.5801 28.9515L52.0139 29.0608C52.0139 29.0608 52.2469 28.8856 52.2715 28.787C52.296 28.6884 52.2319 28.6744 52.2319 28.6744" stroke="#F91C1C" stroke-width="0.3" stroke-miterlimit="10" stroke-linecap="round"/>
    <path d="M52.3593 28.7023C52.3593 28.7023 52.1951 28.7794 52.1822 28.9776C52.1698 29.1678 52.1796 29.3346 52.2615 29.3834L54.0978 29.8676C54.0978 29.8676 53.7671 29.5693 54.0637 29.0802" stroke="#F91C1C" stroke-width="0.3" stroke-miterlimit="10" stroke-linecap="round"/>
    <path d="M54.028 50.9501C54.028 50.9501 53.429 51.1455 53.31 49.9717C53.1911 48.798 53.31 37.2959 53.31 37.2959C53.31 37.2959 53.3033 36.9438 52.6318 36.2713C52.0806 35.7195 52.1763 34.8573 52.1763 34.8573V29.2148" stroke="#F91C1C" stroke-width="0.3" stroke-miterlimit="10" stroke-linecap="round"/>
    <path d="M49.7684 49.3024L49.129 49.0979C49.129 49.0979 48.6763 49.0984 48.6499 47.9246L48.5664 34.545" stroke="#F91C1C" stroke-width="0.3" stroke-miterlimit="10" stroke-linecap="round"/>
    <path d="M53.957 29.3412C53.957 29.3412 54.2603 29.5723 55.0947 29.3833L56.3688 29.1522C56.3688 29.1522 60.0721 30.5747 62.5674 28.4583L63.4915 28.6779C63.4915 28.6779 63.7604 28.8572 64.0484 28.6103L65.155 27.7527" stroke="#F91C1C" stroke-width="0.3" stroke-miterlimit="10" stroke-linecap="round"/>
    <path d="M62.5668 28.4581L62.5078 29.5419" stroke="#F91C1C" stroke-width="0.3" stroke-miterlimit="10" stroke-linecap="round"/>
    <path d="M63.0215 47.7686C63.0215 47.7686 65.3966 49.3221 64.1757 51.7745" stroke="#F91C1C" stroke-width="0.3" stroke-miterlimit="10" stroke-linecap="round"/>
    <path d="M62.9586 48.8363C63.1088 48.9354 63.5303 49.2416 63.7082 49.8055C63.7232 49.853 64.0314 50.8916 63.2888 51.5625C62.7841 52.0184 62.0128 52.107 61.3711 51.774" stroke="#F91C1C" stroke-width="0.3" stroke-miterlimit="10" stroke-linecap="round"/>
    <path d="M62.9588 49.1307C63.6887 49.7753 63.7311 50.8068 63.2132 51.3608C62.8368 51.7635 62.185 51.8912 61.5781 51.6856" stroke="#F91C1C" stroke-width="0.3" stroke-miterlimit="10" stroke-linecap="round"/>
    <path d="M62.9263 49.3851C63.5181 49.9725 63.5267 50.8352 63.0882 51.2826C62.7885 51.5883 62.2965 51.6839 61.8262 51.5618" stroke="#F91C1C" stroke-width="0.3" stroke-miterlimit="10" stroke-linecap="round"/>
    <path d="M62.4618 51.4244C62.5217 51.4244 62.5702 51.3599 62.5702 51.2803C62.5702 51.2008 62.5217 51.1363 62.4618 51.1363C62.402 51.1363 62.3535 51.2008 62.3535 51.2803C62.3535 51.3599 62.402 51.4244 62.4618 51.4244Z" stroke="#F91C1C" stroke-width="0.3" stroke-miterlimit="10" stroke-linecap="round"/>
    <path d="M62.9063 51.1366C62.9742 51.1366 63.0293 51.075 63.0293 50.9992C63.0293 50.9233 62.9742 50.8618 62.9063 50.8618C62.8383 50.8618 62.7832 50.9233 62.7832 50.9992C62.7832 51.075 62.8383 51.1366 62.9063 51.1366Z" stroke="#F91C1C" stroke-width="0.3" stroke-miterlimit="10" stroke-linecap="round"/>
    <path d="M63.176 50.6565C63.2429 50.6565 63.2972 50.5908 63.2972 50.5099C63.2972 50.4289 63.2429 50.3633 63.176 50.3633C63.109 50.3633 63.0547 50.4289 63.0547 50.5099C63.0547 50.5908 63.109 50.6565 63.176 50.6565Z" stroke="#F91C1C" stroke-width="0.3" stroke-miterlimit="10" stroke-linecap="round"/>
    <path d="M63.1413 50.0208C63.2031 50.0208 63.2532 49.9617 63.2532 49.8887C63.2532 49.8158 63.2031 49.7567 63.1413 49.7567C63.0794 49.7567 63.0293 49.8158 63.0293 49.8887C63.0293 49.9617 63.0794 50.0208 63.1413 50.0208Z" stroke="#F91C1C" stroke-width="0.3" stroke-miterlimit="10" stroke-linecap="round"/>
    <path d="M62.7834 50.2997C62.7834 50.2997 62.9662 50.6713 62.5703 50.8278" stroke="#F91C1C" stroke-width="0.3" stroke-miterlimit="10" stroke-linecap="round"/>
    <path d="M61.3717 49.8522L61.2181 50.0601C61.2181 50.0601 60.7626 50.0895 60.5449 49.9477L60.8073 49.757L61.3717 49.8522ZM61.3717 49.8522L61.8263 50.5101L61.3223 51.2535L60.7085 51.1368L60.248 50.5395L60.5056 49.9674" stroke="#F91C1C" stroke-width="0.3" stroke-miterlimit="10" stroke-linecap="round"/>
    <path d="M61.2188 50.0599C61.2188 50.0599 61.4869 50.705 61.6673 50.7737" stroke="#F91C1C" stroke-width="0.3" stroke-miterlimit="10" stroke-linecap="round"/>
    <path d="M60.4012 50.198C60.4012 50.198 60.5744 50.0256 60.7578 50.0599C60.9411 50.0941 61.2529 50.1881 61.3716 50.4565C61.4905 50.7249 61.6156 51.2747 60.9075 51.0965C60.4408 50.979 60.2725 50.5119 60.4012 50.1978V50.198Z" stroke="#F91C1C" stroke-width="0.3" stroke-miterlimit="10" stroke-linecap="round"/>
    <path d="M77.027 38.5823C77.027 38.5823 78.1163 36.5137 76.0469 35.1346" stroke="#F91C1C" stroke-width="0.3" stroke-miterlimit="10" stroke-linecap="round"/>
    <path d="M75.957 35.8781C76.4762 36.3372 76.698 37.0288 76.5214 37.6581C76.3738 38.1842 75.9319 38.7218 75.2936 38.8415C74.8936 38.9166 74.5593 38.8009 74.4023 38.734" stroke="#F91C1C" stroke-width="0.3" stroke-miterlimit="10" stroke-linecap="round"/>
    <path d="M75.9773 35.7115C76.0761 35.7843 76.7385 36.2882 76.7891 37.1688C76.8028 37.4078 76.7979 38.1265 76.2345 38.6066C75.7138 39.0505 74.9193 39.1171 74.2344 38.7729" stroke="#F91C1C" stroke-width="0.3" stroke-miterlimit="10" stroke-linecap="round"/>
    <path d="M73.6309 38.7241C73.6309 38.7241 75.4431 39.174 75.7696 37.2178C76.0964 35.2615 77.4727 19.4951 77.4727 19.4951L78.8986 18.4191L77.3936 34.3618" stroke="#F91C1C" stroke-width="0.3" stroke-miterlimit="10" stroke-linecap="round"/>
    <path d="M77.5706 34.5087C77.5706 34.5087 77.2329 34.0712 76.1641 33.7081" stroke="#F91C1C" stroke-width="0.3" stroke-miterlimit="10" stroke-linecap="round"/>
    <path d="M74.2468 36.9865C74.2468 36.9768 74.5504 36.892 74.5504 36.892L74.9664 37.3256L74.8904 37.8961L74.5439 38.0821C74.5439 38.0821 73.8862 38.3094 73.7946 37.7135C73.7155 37.1984 74.1576 37.0322 74.1576 37.0322L74.2468 36.9865Z" stroke="#F91C1C" stroke-width="0.3" stroke-miterlimit="10" stroke-linecap="round"/>
    <path d="M74.0391 37.0993C74.0654 37.0963 74.3884 37.0641 74.6001 37.3092C74.7648 37.4998 74.794 37.7792 74.6723 38.0131" stroke="#F91C1C" stroke-width="0.3" stroke-miterlimit="10" stroke-linecap="round"/>
    <path d="M73.897 37.4265C73.9232 37.3779 74.0103 37.2314 74.1512 37.2112C74.3824 37.1785 74.6732 37.4982 74.5936 37.7687C74.53 37.9847 74.2391 38.1395 74.0325 38.0425C73.8818 37.9717 73.8153 37.7858 73.8252 37.6382C73.8316 37.5401 73.8712 37.4663 73.8973 37.4262L73.897 37.4265Z" stroke="#F91C1C" stroke-width="0.3" stroke-miterlimit="10" stroke-linecap="round"/>
    <path d="M74.0913 38.0131C74.2215 38.0131 74.3271 37.9 74.3271 37.7605C74.3271 37.621 74.2215 37.5079 74.0913 37.5079C73.961 37.5079 73.8555 37.621 73.8555 37.7605C73.8555 37.9 73.961 38.0131 74.0913 38.0131Z" stroke="#F91C1C" stroke-width="0.3" stroke-miterlimit="10" stroke-linecap="round"/>
    <path d="M74.377 36.9423C74.377 36.9423 74.5678 37.3851 74.8318 37.3688M74.8318 37.3688L74.9675 37.3253M74.8318 37.3688C74.8318 37.3688 74.7425 37.6969 74.8005 37.9446" stroke="#F91C1C" stroke-width="0.3" stroke-miterlimit="10" stroke-linecap="round"/>
    <path d="M72.4121 38.4013L72.7981 34.7531" stroke="#F91C1C" stroke-width="0.3" stroke-miterlimit="10" stroke-linecap="round"/>
    <path d="M77.47 18.3004L77.3178 18.4194C77.3178 18.4194 77.3723 18.5221 77.1246 18.4733C76.8772 18.4245 76.0552 18.2036 76.0552 18.2036L73.6016 19.9257" stroke="#F91C1C" stroke-width="0.3" stroke-miterlimit="10" stroke-linecap="round"/>
    <path d="M77.9573 17.9207L77.4707 18.3004" stroke="#F91C1C" stroke-width="0.3" stroke-miterlimit="10" stroke-linecap="round"/>
    <path d="M75.2806 16.835L73.1719 18.1739" stroke="#F91C1C" stroke-width="0.3" stroke-miterlimit="10" stroke-linecap="round"/>
    <path d="M65.3871 23.0631C64.3681 21.1776 62.5096 20.5309 62.3002 20.463C62.2973 20.462 62.2955 20.4661 62.2981 20.4676C62.4271 20.5503 63.2488 21.1191 63.6341 22.4078L62.5057 23.133" stroke="#F91C1C" stroke-width="0.3" stroke-miterlimit="10" stroke-linecap="round"/>
    <path d="M62.5781 20.33C62.5781 20.33 64.8071 20.997 65.8362 23.2403" stroke="#F91C1C" stroke-width="0.3" stroke-miterlimit="10" stroke-linecap="round"/>
    <path d="M65.877 23.2403L68.6298 21.3339C68.947 18.6505 67.7559 17.3307 67.6173 17.1874C67.6139 17.1841 67.6173 17.1787 67.6219 17.1803C67.9032 17.2781 71.4475 18.6038 70.8577 23.0812" stroke="#F91C1C" stroke-width="0.3" stroke-miterlimit="10" stroke-linecap="round"/>
    <path d="M70.8582 23.0815C70.8993 23.093 70.9851 23.1111 71.0893 23.0881C71.2078 23.0618 71.2833 22.9969 71.3138 22.9676C71.3774 22.6123 71.6951 20.4893 70.2614 18.671C69.2466 17.3841 67.8926 17.0475 67.8926 17.0475" stroke="#F91C1C" stroke-width="0.3" stroke-miterlimit="10" stroke-linecap="round"/>
    <path d="M73.2616 21.5088C73.9023 16.6236 70.0084 15.7302 69.7931 15.6848C69.7913 15.6842 69.7902 15.6868 69.7918 15.6876C69.8978 15.7532 71.0302 16.5094 71.0982 18.8408L70.608 19.1322" stroke="#F91C1C" stroke-width="0.3" stroke-miterlimit="10" stroke-linecap="round"/>
    <path d="M73.531 21.4513C74.1898 16.4274 70.0664 15.558 70.0664 15.558" stroke="#F91C1C" stroke-width="0.3" stroke-miterlimit="10" stroke-linecap="round"/>
    <path d="M77.233 18.4863C77.3837 13.8777 74.5942 13.0918 74.3273 13.0272C74.3229 13.0262 74.3204 13.0318 74.324 13.0344C74.4623 13.136 75.3941 13.9321 75.2475 16.8549C75.2475 16.8549 76.3221 17.1073 76.0547 18.2034" stroke="#F91C1C" stroke-width="0.3" stroke-miterlimit="10" stroke-linecap="round"/>
    <path d="M74.5547 12.8979C74.5547 12.8979 77.7173 13.5584 77.4696 18.3006" stroke="#F91C1C" stroke-width="0.3" stroke-miterlimit="10" stroke-linecap="round"/>
    <path d="M78.3533 14.0357C77.4652 12.577 76.1722 12.0652 76.0398 12.0159C76.0377 12.0151 76.0362 12.0177 76.0377 12.0192C76.1112 12.0795 76.6148 12.5228 76.9636 13.6141L76.3059 14.036" stroke="#F91C1C" stroke-width="0.3" stroke-miterlimit="10" stroke-linecap="round"/>
    <path d="M76.2773 11.8867C76.2773 11.8867 77.8442 12.4342 78.7721 14.2122" stroke="#F91C1C" stroke-width="0.3" stroke-miterlimit="10" stroke-linecap="round"/>
    <path d="M71.0977 18.8408L71.8007 19.052C71.8989 19.0814 71.9982 19.1062 72.098 19.1302C72.3684 19.1948 73.08 19.5521 73.0746 20.7927L72.8765 23.1492C72.8765 23.1492 72.8781 23.6737 72.2257 24.1664C72.2237 24.1679 72.2208 24.1656 72.2224 24.1636C72.2883 24.0783 72.6311 23.5997 72.5425 22.9648C72.5383 22.9344 72.5029 22.9191 72.4773 22.9367L71.6978 23.4766C71.681 23.4883 71.6709 23.5072 71.6709 23.5277C71.6709 23.569 71.6693 23.6482 71.6592 23.7498C71.629 24.056 71.5214 24.5661 71.1488 24.862" stroke="#F91C1C" stroke-width="0.3" stroke-miterlimit="10" stroke-linecap="round"/>
    <path d="M63.6348 22.408L64.5591 22.6511L67.028 23.8509C67.028 23.8509 67.4399 24.0335 67.4373 24.4705C67.4352 24.8183 67.3119 26.1658 67.3119 26.1658C67.3119 26.1658 67.2175 26.4904 66.8432 26.7657C66.5683 26.9679 66.044 27.3505 65.7588 27.5581C65.6243 27.6562 65.4661 27.7175 65.2998 27.7354C64.9405 27.7742 64.3101 27.8115 64.0466 27.6393" stroke="#F91C1C" stroke-width="0.3" stroke-miterlimit="10" stroke-linecap="round"/>
    <path d="M63.3418 24.2427L65.3877 25.3245C65.3877 25.3245 65.6879 25.5135 65.668 25.9441C65.6481 26.3744 65.5087 27.6888 65.5087 27.6888" stroke="#F91C1C" stroke-width="0.3" stroke-miterlimit="10" stroke-linecap="round"/>
    <path d="M65.8357 27.4626L66.0391 25.4241C66.0412 25.3707 66.0373 25.2719 65.9864 25.1634C65.915 25.0119 65.7956 24.9358 65.7488 24.909C65.1327 24.6156 64.5165 24.3221 63.9004 24.0287" stroke="#F91C1C" stroke-width="0.3" stroke-miterlimit="10" stroke-linecap="round"/>
    <path d="M66.2048 27.2335L66.4083 25.195C66.4104 25.1417 66.4065 25.0428 66.3555 24.9343C66.2842 24.7829 66.1647 24.7068 66.1179 24.6799C65.5018 24.3865 64.8857 24.0931 64.2695 23.7996" stroke="#F91C1C" stroke-width="0.3" stroke-miterlimit="10" stroke-linecap="round"/>
    <path d="M66.5368 26.9914L66.7403 24.9529C66.7424 24.8995 66.7385 24.8007 66.6876 24.6922C66.6162 24.5407 66.4968 24.4646 66.45 24.4378C65.8338 24.1444 65.2177 23.8509 64.6016 23.5575" stroke="#F91C1C" stroke-width="0.3" stroke-miterlimit="10" stroke-linecap="round"/>
    <path d="M66.852 26.7207L67.047 24.7665C67.049 24.7131 67.0451 24.6143 66.9942 24.5058C66.9229 24.3543 66.8034 24.2782 66.7566 24.2514C66.1405 23.958 65.5243 23.6645 64.9082 23.3711" stroke="#F91C1C" stroke-width="0.3" stroke-miterlimit="10" stroke-linecap="round"/>
    <path d="M67.0802 26.5494L67.295 24.5696C67.2971 24.5162 67.2932 24.4174 67.2423 24.3089C67.1709 24.1574 67.0514 24.0813 67.0046 24.0545C66.3885 23.7611 65.7724 23.4676 65.1562 23.1742" stroke="#F91C1C" stroke-width="0.3" stroke-miterlimit="10" stroke-linecap="round"/>
    <path d="M79.1259 17.5442L79.2632 16.0668C79.2645 16.0234 79.2622 15.9424 79.2286 15.8538C79.1818 15.7302 79.1034 15.6679 79.0727 15.6462C78.6686 15.4066 77.744 15.0491 77.3398 14.8095" stroke="#F91C1C" stroke-width="0.3" stroke-miterlimit="10" stroke-linecap="round"/>
    <path d="M79.3688 17.3935L79.5074 15.8798C79.5087 15.8364 79.5063 15.7554 79.4727 15.6668C79.4259 15.5432 79.3476 15.4809 79.3168 15.4592C78.9127 15.2196 77.9881 14.8621 77.584 14.6226" stroke="#F91C1C" stroke-width="0.3" stroke-miterlimit="10" stroke-linecap="round"/>
    <path d="M79.5716 17.2699L79.7242 15.6819C79.7255 15.6385 79.7231 15.5576 79.6895 15.469C79.6427 15.3453 79.5644 15.283 79.5336 15.2613C79.1295 15.0218 78.2049 14.6642 77.8008 14.4247" stroke="#F91C1C" stroke-width="0.3" stroke-miterlimit="10" stroke-linecap="round"/>
    <path d="M79.7645 17.0746L79.9253 15.5297C79.9266 15.4863 79.9243 15.4054 79.8907 15.3167C79.8439 15.1931 79.7655 15.1308 79.7348 15.1091C79.3307 14.8696 78.4061 14.512 78.002 14.2725" stroke="#F91C1C" stroke-width="0.3" stroke-miterlimit="10" stroke-linecap="round"/>
    <path d="M79.9243 16.9747L80.0874 15.3693C80.0887 15.3259 80.0864 15.2449 80.0528 15.1563C80.006 15.0327 79.9277 14.9704 79.8969 14.9487C79.4928 14.7092 78.5682 14.3516 78.1641 14.1121" stroke="#F91C1C" stroke-width="0.3" stroke-miterlimit="10" stroke-linecap="round"/>
    <path d="M67.4219 24.3211L68.4002 23.5575C68.4002 23.5575 68.4944 23.3218 69.0753 23.3711C69.6563 23.4206 69.9994 23.3642 69.9994 23.3642L70.719 23.1742C70.719 23.1742 70.8575 23.1578 70.8032 22.9183L70.7833 22.4341C70.7833 22.4341 70.7981 22.1554 70.417 22.0673L69.6496 21.7803C69.6496 21.7803 69.4417 21.3729 68.6296 21.3336" stroke="#F91C1C" stroke-width="0.3" stroke-miterlimit="10" stroke-linecap="round"/>
    <path d="M78.3021 17.9207L77.3402 18.6671C77.3402 18.6671 77.1215 18.6998 76.9894 18.6671C76.8573 18.6345 76.2897 18.4863 76.2897 18.4863C76.2897 18.4863 76.0196 18.3803 75.7913 18.5563L73.6016 20.131" stroke="#F91C1C" stroke-width="0.3" stroke-miterlimit="10" stroke-linecap="round"/>
    <path d="M71.6587 23.7498C71.6587 23.7498 72.1947 23.7577 72.2045 24.3211C72.2143 24.8845 72.1254 25.7457 72.1254 25.7457L72.4607 25.499C72.4814 25.4839 72.5104 25.499 72.5098 25.5242L72.4424 27.8286L70.7393 29.1686H70.5859" stroke="#F91C1C" stroke-width="0.3" stroke-miterlimit="10" stroke-linecap="round"/>
    <path d="M70.9863 26.5493L71.3025 26.3614L71.3331 24.6722" stroke="#F91C1C" stroke-width="0.3" stroke-miterlimit="10" stroke-linecap="round"/>
    <path d="M72.4453 27.6886C72.4453 27.6886 72.7879 27.4664 72.8471 26.8405C72.9066 26.2145 73.4182 21.7154 73.4182 21.7154C73.4182 21.7154 73.0889 21.8811 72.9994 21.6727" stroke="#F91C1C" stroke-width="0.3" stroke-miterlimit="10" stroke-linecap="round"/>
    <path d="M71.3031 23.2403C71.3031 23.2403 71.39 23.1154 71.1602 23.0659" stroke="#F91C1C" stroke-width="0.3" stroke-miterlimit="10" stroke-linecap="round"/>
    <path d="M73.5355 21.4184C73.5355 21.4184 73.0928 21.6462 73.0215 21.4184" stroke="#F91C1C" stroke-width="0.3" stroke-miterlimit="10" stroke-linecap="round"/>
    <path d="M73.418 21.5088C73.418 21.5088 73.6677 21.6531 73.418 21.7154" stroke="#F91C1C" stroke-width="0.3" stroke-miterlimit="10" stroke-linecap="round"/>
    <path d="M73.8881 19.9257L73.4103 27.3699L73.716 27.4176L73.3793 27.6886L73.0742 27.6066L73.6024 20.8841" stroke="#F91C1C" stroke-width="0.3" stroke-miterlimit="10" stroke-linecap="round"/>
    <path d="M76.9648 13.6138L77.6976 13.7704L78.7724 14.2725" stroke="#F91C1C" stroke-width="0.3" stroke-miterlimit="10" stroke-linecap="round"/>
    <path d="M64.5073 22.6371L62.9492 23.643" stroke="#F91C1C" stroke-width="0.3" stroke-miterlimit="10" stroke-linecap="round"/>
    <path d="M77.6971 13.7704L76.6406 14.4806" stroke="#F91C1C" stroke-width="0.3" stroke-miterlimit="10" stroke-linecap="round"/>
    <path d="M75.8943 38.1244C75.96 38.1244 76.0133 38.0718 76.0133 38.0069C76.0133 37.9421 75.96 37.8895 75.8943 37.8895C75.8286 37.8895 75.7754 37.9421 75.7754 38.0069C75.7754 38.0718 75.8286 38.1244 75.8943 38.1244Z" stroke="#F91C1C" stroke-width="0.3" stroke-miterlimit="10" stroke-linecap="round"/>
    <path d="M76.1213 37.6408C76.1764 37.6408 76.2211 37.5966 76.2211 37.5422C76.2211 37.4877 76.1764 37.4436 76.1213 37.4436C76.0662 37.4436 76.0215 37.4877 76.0215 37.5422C76.0215 37.5966 76.0662 37.6408 76.1213 37.6408Z" stroke="#F91C1C" stroke-width="0.3" stroke-miterlimit="10" stroke-linecap="round"/>
    <path d="M76.1565 37.1586C76.231 37.1586 76.2914 37.0989 76.2914 37.0253C76.2914 36.9517 76.231 36.892 76.1565 36.892C76.0819 36.892 76.0215 36.9517 76.0215 37.0253C76.0215 37.0989 76.0819 37.1586 76.1565 37.1586Z" stroke="#F91C1C" stroke-width="0.3" stroke-miterlimit="10" stroke-linecap="round"/>
    <path d="M76.075 36.696C76.1316 36.696 76.1774 36.6421 76.1774 36.5755C76.1774 36.5089 76.1316 36.455 76.075 36.455C76.0185 36.455 75.9727 36.5089 75.9727 36.5755C75.9727 36.6421 76.0185 36.696 76.075 36.696Z" stroke="#F91C1C" stroke-width="0.3" stroke-miterlimit="10" stroke-linecap="round"/>
    <path d="M75.4109 38.5353C75.4566 38.5353 75.4936 38.4987 75.4936 38.4536C75.4936 38.4085 75.4566 38.3719 75.4109 38.3719C75.3652 38.3719 75.3281 38.4085 75.3281 38.4536C75.3281 38.4987 75.3652 38.5353 75.4109 38.5353Z" stroke="#F91C1C" stroke-width="0.3" stroke-miterlimit="10" stroke-linecap="round"/>
    <path d="M77.3405 18.6671L75.5607 37.4436C75.5607 37.4436 75.4285 38.5879 74.0391 38.7685" stroke="#F91C1C" stroke-width="0.3" stroke-miterlimit="10" stroke-linecap="round"/>
    <path d="M78.7715 17.8129L79.9257 17.0746" stroke="#F91C1C" stroke-width="0.3" stroke-miterlimit="10" stroke-linecap="round"/>
    <path d="M66.4086 27.0844L65.1934 45.3293" stroke="#F91C1C" stroke-width="0.3" stroke-miterlimit="10" stroke-linecap="round"/>
    <path d="M76.0192 18.4603C76.0192 18.4603 76.045 19.3503 75.847 19.6248L74.1307 20.7861L73.6818 27.137C73.6818 27.137 74.6736 27.0262 74.851 28.1509L74.6718 29.341L74.7378 30.3712L74.4076 32.1188L73.0874 34.3228L70.8429 36.5773L68.5325 38.4015L67.3837 38.4569C67.3837 38.4569 67.3274 38.5305 67.3116 38.4015C67.2917 38.2381 67.3377 37.7488 67.6477 36.3704C67.6477 36.3704 67.3969 35.4184 67.5156 35.1967L67.5882 34.0784C67.5882 34.0784 67.6363 33.4085 66.8687 33.1883C66.0876 32.9644 66.0731 33.8273 66.0731 33.8273L65.8652 38.0131C65.8652 38.0131 66.35 38.4651 67.3835 38.4567" stroke="#F91C1C" stroke-width="0.3" stroke-miterlimit="10" stroke-linecap="round"/>
    <path d="M66.1348 33.5288C66.1348 33.5288 66.5205 32.746 67.0937 32.9011C67.0945 32.9011 67.095 32.9016 67.0958 32.9016C67.1286 32.912 67.8997 33.1651 67.8738 33.9055C67.8686 34.0516 67.8588 34.1961 67.8459 34.3345C67.7955 34.8765 67.7016 35.3208 67.6902 35.374C67.6894 35.3775 67.6894 35.3811 67.69 35.3849L67.8208 36.3145C67.8211 36.3171 67.8213 36.3196 67.8208 36.3222L67.6799 37.7212C67.6778 37.7416 67.6954 37.7587 67.7161 37.7564L68.6937 37.6441C68.7084 37.6423 68.7203 37.6311 68.7221 37.6165L69.0745 35.0195C69.075 35.0162 69.0748 35.0128 69.0745 35.0098L68.931 34.1984C68.9305 34.1948 68.9302 34.1913 68.931 34.1879L69.1257 32.9787C69.1306 32.948 69.0929 32.9289 69.0706 32.9509L68.491 33.5186C68.4848 33.5247 68.4814 33.5329 68.4814 33.5413V33.8261C68.4814 33.8355 68.4773 33.8445 68.4698 33.8506L67.8772 34.3463" stroke="#F91C1C" stroke-width="0.3" stroke-miterlimit="10" stroke-linecap="round"/>
    <path d="M66.1914 33.3122C66.2005 33.2233 66.2307 33.0639 66.3499 32.9209C66.5371 32.6962 66.8647 32.6058 67.1949 32.6796C67.2828 32.7074 67.7071 32.852 67.9475 33.2992C68.1655 33.7044 68.0879 34.0903 68.0649 34.1894" stroke="#F91C1C" stroke-width="0.3" stroke-miterlimit="10" stroke-linecap="round"/>
    <path d="M67.0742 32.6014L67.295 26.322" stroke="#F91C1C" stroke-width="0.3" stroke-miterlimit="10" stroke-linecap="round"/>
    <path d="M68.2356 23.9722L67.8214 32.0015L68.2175 32.1905L67.7886 32.4431L67.3594 32.2493L67.7914 24.3211" stroke="#F91C1C" stroke-width="0.3" stroke-miterlimit="10" stroke-linecap="round"/>
    <path d="M69.0098 37.037L68.9437 37.7015C68.9403 37.7332 68.9654 37.7608 68.9974 37.7608C69.0729 37.7608 69.1303 37.6936 69.1177 37.6203L69.099 37.07C69.0967 37.0562 69.0114 37.0235 69.0098 37.0373V37.037Z" stroke="#F91C1C" stroke-width="0.3" stroke-miterlimit="10" stroke-linecap="round"/>
    <path d="M69.2831 37.7605L69.402 36.7091C69.402 36.7091 69.3661 36.5377 69.1411 36.3863C68.9958 36.2884 69.2714 35.0659 69.2714 35.0659C69.2714 35.0659 69.2665 34.359 69.1411 34.1892L69.3325 32.7968C69.3325 32.7968 69.4183 31.8774 68.2168 31.6524L68.2556 30.7915L68.5203 24.9332C68.5203 24.9332 68.4808 24.7473 69.2037 24.7866C69.9266 24.8257 70.5505 24.7085 70.6394 24.4444C70.7286 24.1804 70.8155 23.3 70.8155 23.3C70.8155 23.3 71.0381 23.3864 71.3029 23.2405L70.8155 28.3373C70.8155 28.3373 70.9298 29.2567 69.7598 29.9316C68.5896 30.6066 68.2556 30.792 68.2556 30.792" stroke="#F91C1C" stroke-width="0.3" stroke-miterlimit="10" stroke-linecap="round"/>
    <path d="M67.4375 24.591L68.3321 23.8966C68.3321 23.8966 68.6687 23.4924 69.3123 23.5575C69.9558 23.6226 70.7041 23.5054 70.8152 23.2998" stroke="#F91C1C" stroke-width="0.3" stroke-miterlimit="10" stroke-linecap="round"/>
    <path d="M72.7614 27.2335L72.6797 27.9458C72.6797 27.9458 73.9471 27.9655 73.6056 29.5008L73.8884 29.2848C73.9696 29.2227 74.0198 29.1287 74.0257 29.0276L74.0394 28.7929L74.66 28.286C74.66 28.286 74.806 27.4861 73.8879 27.1421" stroke="#F91C1C" stroke-width="0.3" stroke-miterlimit="10" stroke-linecap="round"/>
    <path d="M74.6592 28.2857L74.4743 29.4584L74.5666 30.5004L74.3026 31.8905L73.2927 33.5793C73.2927 33.5793 73.141 33.6555 73.1606 33.4218C73.1803 33.1881 73.4776 31.3557 73.4776 31.3557L73.3719 30.5002L73.5236 29.2626C73.5236 29.2626 73.6888 28.5628 72.7513 28.2855C72.025 28.0707 71.9922 28.9998 71.9922 28.9998L71.5896 31.7991C71.5896 31.7991 70.9492 32.0664 70.8437 32.8489M70.8437 32.8489L69.1406 34.1892M70.8437 32.8489C70.8437 32.8489 72.0716 32.6076 72.6986 33.6772L72.4923 34.9211" stroke="#F91C1C" stroke-width="0.3" stroke-miterlimit="10" stroke-linecap="round"/>
    <path d="M70.9577 35.8094C70.9577 35.8094 71.0363 35.3351 70.7343 35.648C70.4323 35.9611 69.7606 36.6407 69.7606 36.6407C69.7606 36.6407 69.6352 36.7581 69.6202 36.988L69.6055 37.2178C69.6055 37.2178 69.6104 37.3616 69.7986 37.2089C69.9868 37.0562 70.8432 36.3178 70.8432 36.3178C70.8432 36.3178 70.9373 36.2103 70.9448 36.0683C70.9523 35.9266 70.958 35.8091 70.958 35.8091L70.9577 35.8094Z" stroke="#F91C1C" stroke-width="0.3" stroke-miterlimit="10" stroke-linecap="round"/>
    <path d="M72.314 34.5526C72.314 34.5526 72.3189 34.3473 72.1358 34.4842C71.9528 34.6211 71.2149 35.2177 71.2149 35.2177C71.2149 35.2177 71.1011 35.3203 71.0959 35.4329C71.091 35.5453 71.0959 35.9611 71.0959 35.9611C71.0959 35.9611 71.0959 36.0834 71.2394 35.9611C71.3829 35.8388 72.2196 35.0417 72.2196 35.0417C72.2196 35.0417 72.2987 34.9733 72.3137 34.8851C72.3285 34.797 72.3137 34.5526 72.3137 34.5526H72.314Z" stroke="#F91C1C" stroke-width="0.3" stroke-miterlimit="10" stroke-linecap="round"/>
    <path d="M72.0108 34.5804C72.0108 34.5804 72.0597 34.8769 71.934 35.0074C71.8087 35.1379 71.0938 35.7115 71.0938 35.7115" stroke="#F91C1C" stroke-width="0.3" stroke-miterlimit="10" stroke-linecap="round"/>
    <path d="M70.5573 35.8311C70.5573 35.8311 70.6344 36.0834 70.4694 36.2593C70.3045 36.4353 69.6211 36.9879 69.6211 36.9879" stroke="#F91C1C" stroke-width="0.3" stroke-miterlimit="10" stroke-linecap="round"/>
    <path d="M73.0268 33.4473C72.9895 33.4399 72.9146 33.6636 72.8848 33.7523C72.7734 34.0848 72.7075 34.4558 72.7527 34.4696C72.7571 34.4709 72.7643 34.4696 72.845 34.3588C72.928 34.2451 72.9694 34.1882 72.987 34.1535C73.0079 34.1118 73.0255 34.0613 73.0366 33.8143C73.0475 33.5732 73.0529 33.4527 73.0268 33.4476V33.4473Z" stroke="#F91C1C" stroke-width="0.3" stroke-miterlimit="10" stroke-linecap="round"/>
    <path d="M71.5898 31.7993C71.5898 31.7993 72.5343 31.6954 73.0445 32.4189" stroke="#F91C1C" stroke-width="0.3" stroke-miterlimit="10" stroke-linecap="round"/>
    <path d="M72.5235 29.4439C72.667 29.4439 72.7834 29.329 72.7834 29.1872C72.7834 29.0455 72.667 28.9305 72.5235 28.9305C72.38 28.9305 72.2637 29.0455 72.2637 29.1872C72.2637 29.329 72.38 29.4439 72.5235 29.4439Z" stroke="#F91C1C" stroke-width="0.3" stroke-miterlimit="10" stroke-linecap="round"/>
    <path d="M71.9926 27.1298C71.9926 27.67 71.7048 28.0957 71.5478 28.0957C71.3909 28.0957 71.3027 27.86 71.3027 27.3198C71.3027 26.7797 71.6112 26.2505 71.7681 26.2505C71.9251 26.2505 71.9926 26.5897 71.9926 27.1298Z" stroke="#F91C1C" stroke-width="0.3" stroke-miterlimit="10" stroke-linecap="round"/>
    <path d="M25.506 26.4199C25.1107 26.4679 24.8128 26.8883 24.803 27.2905C24.7916 27.7581 25.1683 28.2625 25.6547 28.2489C26.0766 28.2372 26.4052 27.8403 26.4469 27.4567C26.505 26.9207 26.0089 26.3591 25.5063 26.4199H25.506Z" stroke="#F91C1C" stroke-width="0.3" stroke-miterlimit="10" stroke-linecap="round"/>
    <path d="M49.3099 32.2623C48.8473 32.2534 48.4324 32.6145 48.3592 33.0579C48.2671 33.6166 48.7395 34.181 49.3099 34.1793C49.7582 34.178 50.1577 33.8271 50.234 33.3968C50.3314 32.8469 49.8821 32.2733 49.3099 32.2621V32.2623Z" stroke="#F91C1C" stroke-width="0.3" stroke-miterlimit="10" stroke-linecap="round"/>
    <path d="M5.73507 21.7251C5.40516 21.7427 5.15462 22.0985 5.12126 22.4162C5.07524 22.8529 5.42584 23.3481 5.82091 23.3289C6.15625 23.3126 6.42644 22.9305 6.44144 22.5791C6.45928 22.1636 6.12471 21.7042 5.73507 21.7249V21.7251Z" stroke="#F91C1C" stroke-width="0.3" stroke-miterlimit="10" stroke-linecap="round"/>
    <path d="M53.2105 26.1948C53.2718 26.1948 53.3214 26.1007 53.3214 25.9847C53.3214 25.8686 53.2718 25.7745 53.2105 25.7745C53.1493 25.7745 53.0996 25.8686 53.0996 25.9847C53.0996 26.1007 53.1493 26.1948 53.2105 26.1948Z" stroke="#F91C1C" stroke-width="0.3" stroke-miterlimit="10" stroke-linecap="round"/>
    <path d="M62.074 26.1831C62.1883 26.1831 62.2809 26.0916 62.2809 25.9788C62.2809 25.8659 62.1883 25.7745 62.074 25.7745C61.9598 25.7745 61.8672 25.8659 61.8672 25.9788C61.8672 26.0916 61.9598 26.1831 62.074 26.1831Z" stroke="#F91C1C" stroke-width="0.3" stroke-miterlimit="10" stroke-linecap="round"/>
    <path d="M69.3817 21.1286C69.4965 21.1286 69.5896 21.0366 69.5896 20.9232C69.5896 20.8098 69.4965 20.7179 69.3817 20.7179C69.2669 20.7179 69.1738 20.8098 69.1738 20.9232C69.1738 21.0366 69.2669 21.1286 69.3817 21.1286Z" stroke="#F91C1C" stroke-width="0.3" stroke-miterlimit="10" stroke-linecap="round"/>
    <path d="M32.457 25.4361L32.7823 32.2628" stroke="#F91C1C" stroke-width="0.3" stroke-miterlimit="10" stroke-linecap="round"/>
    <path d="M72.6813 27.9458C72.6813 27.9458 72.3563 27.8786 72.1797 28.396C72.1797 28.396 72.3788 28.2431 72.7395 28.3958C72.9861 28.5002 73.4339 28.6435 73.3876 29.3085L73.1896 30.6582L73.2819 31.4277L73.0838 32.6543L72.7009 33.6771" stroke="#F91C1C" stroke-width="0.3" stroke-miterlimit="10" stroke-linecap="round"/>
    <path d="M74.3117 31.8496L73.4414 31.5873" stroke="#F91C1C" stroke-width="0.3" stroke-miterlimit="10" stroke-linecap="round"/>
    <path d="M71.9817 18.6248C72.0902 18.6248 72.1782 18.5379 72.1782 18.4307C72.1782 18.3235 72.0902 18.2366 71.9817 18.2366C71.8731 18.2366 71.7852 18.3235 71.7852 18.4307C71.7852 18.5379 71.8731 18.6248 71.9817 18.6248Z" stroke="#F91C1C" stroke-width="0.3" stroke-miterlimit="10" stroke-linecap="round"/>
    <path d="M75.9234 16.7096C76.0159 16.7096 76.091 16.6355 76.091 16.5441C76.091 16.4527 76.0159 16.3786 75.9234 16.3786C75.8309 16.3786 75.7559 16.4527 75.7559 16.5441C75.7559 16.6355 75.8309 16.7096 75.9234 16.7096Z" stroke="#F91C1C" stroke-width="0.3" stroke-miterlimit="10" stroke-linecap="round"/>
    <path d="M66.7384 34.2152C66.8819 34.2152 66.9982 34.1003 66.9982 33.9586C66.9982 33.8168 66.8819 33.7019 66.7384 33.7019C66.5948 33.7019 66.4785 33.8168 66.4785 33.9586C66.4785 34.1003 66.5948 34.2152 66.7384 34.2152Z" stroke="#F91C1C" stroke-width="0.3" stroke-miterlimit="10" stroke-linecap="round"/>
    <path d="M68.6934 37.6435L67.7168 37.3519" stroke="#F91C1C" stroke-width="0.3" stroke-miterlimit="10" stroke-linecap="round"/>
    <path d="M54.5325 27.4869L54.4004 27.6981" stroke="#F91C1C" stroke-width="0.3" stroke-miterlimit="10" stroke-linecap="round"/>
    <path d="M53.2044 27.2008L53.0723 27.4118" stroke="#F91C1C" stroke-width="0.3" stroke-miterlimit="10" stroke-linecap="round"/>
    <path d="M2.97619 16.1697L2.68945 16.3523" stroke="#F91C1C" stroke-width="0.3" stroke-miterlimit="10" stroke-linecap="round"/>
    <path d="M54.9648 21.4478L57.5687 21.9545C58.2146 22.0801 58.8848 21.9608 59.4458 21.6207L76.2653 11.4167" stroke="#F91C1C" stroke-width="0.3" stroke-miterlimit="10" stroke-linecap="round"/>
    <path d="M49.7969 20.4423L53.9767 21.2555" stroke="#F91C1C" stroke-width="0.3" stroke-miterlimit="10" stroke-linecap="round"/>
    <path d="M30.3691 16.6626L48.7559 20.2398" stroke="#F91C1C" stroke-width="0.3" stroke-miterlimit="10" stroke-linecap="round"/>
    <path d="M25.8809 15.7892L29.4564 16.4849" stroke="#F91C1C" stroke-width="0.3" stroke-miterlimit="10" stroke-linecap="round"/>
    <path d="M9.71094 12.6431L25.0233 15.6224" stroke="#F91C1C" stroke-width="0.3" stroke-miterlimit="10" stroke-linecap="round"/>
    <path d="M5.94727 11.9109L9.01009 12.507" stroke="#F91C1C" stroke-width="0.3" stroke-miterlimit="10" stroke-linecap="round"/>
    <path d="M2.93164 11.3243L5.474 11.819" stroke="#F91C1C" stroke-width="0.3" stroke-miterlimit="10" stroke-linecap="round"/>
  </g>
  <defs>
    <clipPath id="clip0_270_38743">
      <rect width="81" height="53" fill="white"/>
    </clipPath>
  </defs>
</svg>