<svg width="177" height="45" viewBox="0 0 177 45" fill="none" xmlns="http://www.w3.org/2000/svg">
<g clip-path="url(#clip0_270_1173)">
<path d="M19.8917 20.9025C19.8354 21.8888 19.789 22.8752 19.7626 23.8632C19.7526 24.2169 19.7526 24.5705 19.7526 24.9242C18.1847 22.7373 16.8387 20.3827 15.7344 17.887C17.0523 18.7521 18.3702 19.6089 19.698 20.4558C19.8735 20.577 19.9116 20.6899 19.8917 20.9025Z" fill="white"/>
<path d="M26.6234 24.9524C26.6334 24.5522 26.6334 24.1521 26.6334 23.7519C26.6334 22.7373 26.5506 21.7128 26.4844 20.6982C26.4844 20.5404 26.5489 20.4939 26.6615 20.4275C27.9894 19.5524 29.3437 18.669 30.6897 17.8022C29.5755 20.3362 28.2211 22.7273 26.6234 24.9524Z" fill="white"/>
<path d="M31.3843 13.382C30.6045 13.8752 29.8065 14.3501 28.9985 14.7868C27.9786 15.3464 26.929 15.8396 25.8429 16.2481C25.6111 16.3411 25.3793 16.4257 25.1475 16.4905C24.9703 16.537 24.8693 16.6483 24.8131 16.816C24.6458 17.3756 24.6376 17.9435 24.6641 18.5197C24.7485 20.0656 25.0366 21.5733 25.3793 23.0711C25.3892 23.1558 25.3892 23.2671 25.3429 23.3235C24.6458 24.104 23.9323 24.8861 23.1988 25.6964V25.7711C22.8644 25.3992 22.5581 25.0638 22.2518 24.7184C21.8627 24.2999 21.472 23.8815 21.1011 23.4431C21.0365 23.3783 21.0183 23.2488 21.0365 23.1558C21.2402 21.9088 21.4819 20.6518 21.6773 19.3948C21.7882 18.6591 21.7882 17.9053 21.6673 17.1514C21.5928 16.816 21.4538 16.6217 21.0912 16.5005C18.9571 15.7931 16.9984 14.7038 15.1143 13.5115C15.0597 13.485 15.0133 13.4468 14.957 13.4103C17.6392 12.8424 20.424 12.5435 23.2634 12.5435C26.0382 12.5435 28.7667 12.8324 31.3843 13.382Z" fill="white"/>
<path d="M55.1289 14.8798H77.0579V18.5296H68.0793V30.5766H64.2647V18.5296H55.1289V14.8798Z" fill="black"/>
<path d="M96.0879 27.4948H83.3924L81.6706 30.575H77.25L85.4471 16.2132C85.5646 15.9907 85.6855 15.7981 85.808 15.6337C85.9322 15.471 86.0779 15.3332 86.2484 15.2219C86.4173 15.1106 86.6209 15.026 86.8544 14.9662C87.0878 14.9064 87.3825 14.8782 87.7352 14.8782H91.6855C92.7683 14.8782 93.563 15.3166 94.073 16.1933L102.25 30.575H97.8478L96.0879 27.4948ZM85.2501 24.0426H94.2087L91.4902 19.2553C91.3461 18.9929 91.1872 18.807 91.01 18.6957C90.8345 18.5845 90.6541 18.5297 90.4719 18.5297H88.9653C88.5481 18.5297 88.2021 18.7787 87.9289 19.2752L85.2501 24.0426Z" fill="black"/>
<path d="M120.45 16.195C119.941 15.3183 119.145 14.8799 118.062 14.8799H114.112C113.761 14.8799 113.466 14.9081 113.231 14.9696C112.998 15.0277 112.796 15.1124 112.625 15.2253C112.458 15.3365 112.31 15.4727 112.186 15.6354C112.06 15.7981 111.94 15.9941 111.824 16.2149L103.625 30.5768H108.046L114.307 19.2753C114.58 18.7804 114.926 18.5314 115.344 18.5314H116.85C117.031 18.5314 117.213 18.5862 117.388 18.6974C117.564 18.8103 117.724 18.9946 117.868 19.2587L124.224 30.5784H128.627L120.45 16.195Z" fill="white"/>
<path d="M134.114 30.5751C130.188 30.5751 128.227 28.9146 128.227 25.5919V19.883C128.227 16.547 130.188 14.8799 134.114 14.8799H146.204C150.129 14.8799 152.091 16.547 152.091 19.883V25.5919C152.091 28.9146 150.127 30.5751 146.204 30.5751H134.114ZM134.114 18.5297C132.745 18.5297 132.059 18.9814 132.059 19.883V25.5919C132.059 26.4819 132.743 26.9253 134.114 26.9253H146.204C147.573 26.9253 148.258 26.4803 148.258 25.5919V19.883C148.258 18.9814 147.574 18.5297 146.204 18.5297H134.114Z" fill="black"/>
<path d="M177.054 26.9253V30.5751H158.766C155.624 30.5751 154.051 29.2932 154.051 26.731V18.7057C154.051 16.1568 155.622 14.8799 158.766 14.8799H176.627V18.5297H158.766C158.165 18.5297 157.865 18.7854 157.865 19.2952V26.1415C157.865 26.6646 158.165 26.9253 158.766 26.9253H177.054Z" fill="black"/>
<path d="M23.1721 45.0065C22.3161 44.4303 21.4684 43.8275 20.6406 43.1882C21.4684 43.8192 22.3161 44.422 23.1721 45.0065Z" fill="#FA5E1A"/>
<path d="M23.1721 45.0065C22.3161 44.4303 21.4684 43.8275 20.6406 43.1882C21.4684 43.8192 22.3161 44.422 23.1721 45.0065Z" fill="#FA5E1A"/>
<path d="M23.1721 45.0065C22.3161 44.4303 21.4684 43.8275 20.6406 43.1882C21.4684 43.8192 22.3161 44.422 23.1721 45.0065Z" fill="#FA5E1A"/>
<path d="M45.2859 12.0454C45.0492 13.2144 44.776 14.3568 44.4565 15.4893C44.2197 16.3478 43.9647 17.1979 43.6816 18.0382C43.3621 18.988 43.0161 19.9378 42.6435 20.871C40.7313 25.6848 38.1253 30.135 34.9564 34.1169V34.1269C34.6468 34.5205 34.319 34.904 33.9995 35.2876C33.6716 35.6812 33.3438 36.0548 33.0061 36.4383C32.7147 36.7671 32.4133 37.0959 32.1137 37.4164C31.8041 37.7369 31.4945 38.0657 31.1849 38.3762C30.3471 39.2164 29.4911 40.03 28.607 40.8055C27.9232 41.4083 27.2312 41.9928 26.5209 42.5507C25.4365 43.4192 24.3173 44.2312 23.1682 45.0083C22.3123 44.4238 21.4646 43.821 20.6368 43.19C20.3636 42.9791 20.0904 42.7699 19.8172 42.5507C20.9745 41.8284 22.0855 41.0529 23.1699 40.2393C23.8802 39.6996 24.5822 39.1433 25.256 38.5671C26.1401 37.8182 27.0044 37.0411 27.8338 36.2291C28.453 35.6264 29.064 34.9954 29.655 34.3561C30.3289 33.6254 30.9762 32.8766 31.6037 32.0994C34.7826 28.1889 37.3703 23.7769 39.218 18.9896C39.5823 18.0664 39.9101 17.1348 40.2114 16.1751C40.4763 15.3531 40.7131 14.5129 40.9316 13.6727C40.1485 13.3074 39.3472 12.9686 38.5276 12.6498C38.0905 12.4754 37.6435 12.311 37.1882 12.1649C37.1071 12.1284 37.0144 12.1002 36.9332 12.0736C36.7511 12.0088 36.5591 11.9457 36.3769 11.8909C36.021 11.7714 35.6567 11.6618 35.3024 11.5522C34.4829 11.3048 33.6534 11.0856 32.8074 10.8946C31.8504 10.6754 30.8852 10.4828 29.9017 10.3367C27.7428 9.98964 25.5292 9.81529 23.2709 9.81529C20.948 9.81529 18.6715 9.99794 16.448 10.3633C15.4728 10.5193 14.5076 10.7103 13.5506 10.9395C13.5142 10.8116 13.4861 10.692 13.4596 10.5642C13.4331 10.4446 13.4049 10.3168 13.3784 10.1989C13.3056 9.89665 13.241 9.58613 13.1781 9.28558C13.0688 8.71934 12.9678 8.16141 12.8867 7.59518C13.8437 7.36602 14.8089 7.17507 15.7841 7.01898C18.2245 6.61714 20.7212 6.40625 23.2709 6.40625C25.7577 6.40625 28.1898 6.59887 30.5673 6.98244C31.5425 7.13853 32.5077 7.3295 33.4729 7.54869C34.3107 7.74131 35.1485 7.95053 35.9779 8.19794C37.0806 8.51842 38.1733 8.87377 39.2395 9.27562C40.069 9.57783 40.8886 9.91492 41.6899 10.262C42.9184 10.8133 44.1204 11.4061 45.2859 12.0454Z" fill="white"/>
<path d="M21.0838 38.5671C19.9993 39.3625 18.8884 40.1114 17.7311 40.8055C16.847 40.0284 15.9827 39.2164 15.1533 38.3761C14.534 37.7451 13.9231 37.0975 13.332 36.44C12.6582 35.6811 12.0108 34.914 11.3834 34.1285C8.23102 30.1632 5.64491 25.7413 3.73264 20.9739C3.35847 20.0424 3.01244 19.1009 2.69456 18.1427C2.41144 17.3025 2.14819 16.4523 1.91144 15.5938C1.5919 14.4614 1.31044 13.3189 1.07368 12.1499C0.891563 11.2632 0.727653 10.3782 0.590235 9.47318C0.379968 8.11156 0.225994 6.73333 0.125 5.34348C1.35514 4.73075 2.62005 4.16452 3.90483 3.65308C3.9694 5.023 4.08695 6.37632 4.26079 7.70972C4.37006 8.60474 4.51576 9.48149 4.67139 10.3499C4.88994 11.5007 5.13662 12.6331 5.42802 13.7573C5.6565 14.5975 5.89326 15.4378 6.16644 16.2697C6.46776 17.2195 6.79558 18.151 7.15982 19.0743C9.00917 23.825 11.5771 28.2104 14.7377 32.101C15.3668 32.8682 16.0125 33.6271 16.6864 34.3577C17.2791 34.997 17.8884 35.628 18.5076 36.2307C19.2179 35.7276 19.9198 35.1979 20.5937 34.6599C21.4861 33.9376 22.342 33.1887 23.1715 32.4132C23.8007 31.8188 24.4099 31.2077 24.9927 30.5767C25.6666 29.8643 26.3139 29.1154 26.9414 28.3483C29.7378 24.9226 32.0143 21.0486 33.6368 16.8459C33.9928 15.9326 34.3206 15.001 34.612 14.0512C35.7047 14.3717 36.7792 14.7453 37.8273 15.1571C37.5359 16.107 37.208 17.0385 36.8521 17.9617C35.0855 22.5664 32.5987 26.8239 29.5192 30.5784C28.8901 31.3455 28.2444 32.0861 27.5706 32.8068C26.9778 33.4461 26.3686 34.0588 25.7494 34.6616C24.9199 35.4569 24.0556 36.2241 23.1715 36.9547C22.496 37.5077 21.7957 38.0457 21.0838 38.5671Z" fill="white"/>
<path d="M13.5531 10.9411H13.5433C13.5153 10.8215 13.4889 10.6937 13.4609 10.5658C13.4889 10.6937 13.5169 10.8132 13.5531 10.9411Z" fill="white"/>
<path d="M46.2255 5.2405C46.1245 6.63866 45.9706 8.00859 45.7702 9.37021C44.5682 8.73921 43.348 8.16467 42.0897 7.625C41.2785 7.28626 40.4506 6.95748 39.6129 6.65693C38.5284 6.27335 37.4275 5.91634 36.3066 5.60582C35.4771 5.36837 34.6311 5.15747 33.7834 4.96652C32.8181 4.75563 31.843 4.57298 30.8595 4.41855C28.391 4.025 25.8495 3.82409 23.2717 3.82409C20.621 3.82409 18.025 4.03497 15.4935 4.44512C14.5101 4.60951 13.5349 4.79216 12.5697 5.01135C11.722 5.20397 10.8759 5.42317 10.0465 5.66062C10.1292 6.52907 10.2385 7.39586 10.3743 8.25435C10.5564 9.38682 10.7849 10.501 11.0581 11.6069C11.2584 12.4472 11.4951 13.2791 11.7501 14.101C12.0415 15.0508 12.3693 15.9824 12.7253 16.8957C14.3561 21.0802 16.6144 24.9342 19.4025 28.3433C20.0316 29.1104 20.6773 29.8593 21.3512 30.5717C20.5217 31.3571 19.6657 32.0977 18.7733 32.8001C18.0995 32.0778 17.4521 31.3388 16.8246 30.5717C13.7634 26.8355 11.2865 22.6062 9.51996 18.0198C9.164 17.1066 8.83618 16.175 8.53651 15.2235C8.28154 14.4016 8.04479 13.5614 7.83452 12.7211C7.55141 11.6152 7.31465 10.4828 7.11432 9.35028C6.96862 8.48183 6.84114 7.60508 6.74014 6.72833C6.58451 5.40324 6.49346 4.05988 6.45703 2.70822C7.55969 2.32464 8.68884 1.9859 9.83619 1.68534C10.6839 1.45619 11.5481 1.24696 12.414 1.0643C13.3892 0.853416 14.3809 0.680722 15.3743 0.524633C17.9521 0.131091 20.5846 -0.0698242 23.2717 -0.0698242C25.886 -0.0698242 28.4539 0.122791 30.9688 0.496408C31.9622 0.642533 32.9539 0.816888 33.9291 1.02611C34.795 1.20047 35.6592 1.40139 36.5069 1.62888C37.6543 1.92113 38.7834 2.25988 39.896 2.63349C40.752 2.92574 41.5997 3.23626 42.4457 3.56504C43.7288 4.0798 44.9871 4.63774 46.2255 5.2405Z" fill="white"/>
<path d="M13.5531 10.9411H13.5433C13.5153 10.8215 13.4889 10.6937 13.4609 10.5658C13.4889 10.6937 13.5169 10.8132 13.5531 10.9411Z" fill="white"/>
<path d="M60.0078 38.602H58.7611L57.5376 36.6974H56.7942V38.602H55.7031V33.8745H56.7942V35.7858H57.5674L58.8091 33.8745H59.9664L58.42 36.1577L60.0078 38.602Z" fill="white"/>
<path d="M66.1897 37.7252V38.602H62.5391V33.8745H66.102V34.7529H63.6235V35.7725H65.8123V36.631H63.6235V37.7252H66.1897Z" fill="white"/>
<path d="M69.0938 38.6037V33.8745H70.1716V36.9614L72.4282 33.8745H73.4514V38.6037H72.3736V35.53L70.1236 38.6037H69.0938ZM71.2626 33.5707C70.8222 33.5707 70.4977 33.481 70.2858 33.3C70.0739 33.1207 69.9663 32.8649 69.963 32.5361H70.7113C70.7163 32.6989 70.7643 32.8218 70.8554 32.9048C70.9481 32.9878 71.0838 33.0293 71.2626 33.0293C71.4464 33.0293 71.5871 32.9878 71.6832 32.9048C71.7792 32.8218 71.8289 32.6989 71.8289 32.5361H72.5689C72.5689 32.8649 72.463 33.119 72.2527 33.3C72.0424 33.481 71.7113 33.5707 71.2626 33.5707Z" fill="white"/>
<path d="M78.8717 38.6851C78.5074 38.6851 78.1697 38.6253 77.8584 38.5058C77.5455 38.3862 77.2756 38.2168 77.0471 37.996C76.8187 37.7751 76.6398 37.5161 76.5124 37.2189C76.3849 36.9216 76.3203 36.5945 76.3203 36.2392C76.3203 35.8838 76.3849 35.5567 76.5124 35.2594C76.6398 34.9622 76.8203 34.7032 77.0504 34.4823C77.2822 34.2615 77.5538 34.0921 77.865 33.9725C78.1763 33.853 78.5157 33.7932 78.8783 33.7932C79.2872 33.7932 79.6564 33.8646 79.9892 34.0058C80.322 34.1469 80.6001 34.3561 80.8237 34.6301L80.1167 35.2794C79.9594 35.095 79.7806 34.9556 79.5819 34.8609C79.3816 34.7663 79.1647 34.7198 78.9313 34.7198C78.7111 34.7198 78.5091 34.7563 78.3253 34.831C78.1415 34.9058 77.9826 35.0104 77.8468 35.1449C77.7127 35.2794 77.6084 35.4405 77.5339 35.6248C77.4594 35.8091 77.423 36.015 77.423 36.2392C77.423 36.465 77.4594 36.6692 77.5339 36.8535C77.6084 37.0379 77.7127 37.1973 77.8468 37.3334C77.9809 37.4679 78.1415 37.5725 78.3253 37.6473C78.5091 37.722 78.7111 37.7585 78.9313 37.7585C79.1647 37.7585 79.3816 37.7104 79.5819 37.6141C79.7823 37.5178 79.9594 37.3766 80.1167 37.1923L80.8237 37.8416C80.5985 38.1155 80.3203 38.3264 79.9892 38.4692C79.6564 38.612 79.2839 38.6851 78.8717 38.6851Z" fill="white"/>
<path d="M85.8428 35.4354C86.404 35.4354 86.8411 35.5616 87.1524 35.814C87.4637 36.0664 87.6209 36.4467 87.6209 36.9548C87.6209 37.4944 87.4488 37.9046 87.106 38.1835C86.7633 38.4625 86.2881 38.602 85.6822 38.602H83.5547V33.8745H84.6325V35.4354H85.8428ZM85.6143 37.7933C85.9007 37.7933 86.1242 37.7219 86.2848 37.5808C86.4438 37.4396 86.5233 37.2371 86.5233 36.9764C86.5233 36.7157 86.4438 36.5264 86.2848 36.4085C86.1259 36.2922 85.9024 36.2324 85.6143 36.2324H84.6309V37.7933H85.6143ZM88.2269 38.6037V33.8745H89.3047V38.6037H88.2269Z" fill="white"/>
<path d="M96.4219 38.6037V33.8745H97.4997V36.9614L99.7563 33.8745H100.78V38.6037H99.7017V35.53L97.4517 38.6037H96.4219Z" fill="white"/>
<path d="M112.19 38.602H110.945L109.721 36.6974H108.978V38.602H107.887V33.8745H108.978V35.7858H109.751L110.991 33.8745H112.15L110.604 36.1577L112.19 38.602Z" fill="white"/>
<path d="M116.956 38.6851C116.583 38.6851 116.239 38.6237 115.926 38.5024C115.611 38.3812 115.338 38.2102 115.105 37.9893C114.871 37.7685 114.691 37.5094 114.563 37.2122C114.436 36.915 114.371 36.5912 114.371 36.2392C114.371 35.8838 114.436 35.5583 114.563 35.2628C114.691 34.9672 114.871 34.7098 115.105 34.489C115.338 34.2681 115.611 34.0971 115.922 33.9759C116.234 33.8546 116.576 33.7932 116.949 33.7932C117.321 33.7932 117.664 33.853 117.975 33.9725C118.287 34.0921 118.56 34.2615 118.793 34.4823C119.027 34.7032 119.207 34.9622 119.335 35.2594C119.462 35.5567 119.527 35.8838 119.527 36.2392C119.527 36.5912 119.462 36.915 119.335 37.2155C119.207 37.5144 119.025 37.7751 118.793 37.996C118.56 38.2168 118.287 38.3862 117.975 38.5058C117.664 38.6253 117.325 38.6851 116.956 38.6851ZM116.949 37.7585C117.159 37.7585 117.355 37.722 117.532 37.6473C117.709 37.5725 117.865 37.4679 118 37.3301C118.134 37.1923 118.239 37.0329 118.313 36.8502C118.388 36.6676 118.424 36.465 118.424 36.2392C118.424 36.0133 118.388 35.8107 118.313 35.6281C118.239 35.4454 118.134 35.286 118 35.1482C117.866 35.0104 117.709 34.9058 117.532 34.831C117.355 34.7563 117.161 34.7198 116.949 34.7198C116.739 34.7198 116.543 34.7563 116.363 34.831C116.184 34.9058 116.027 35.0104 115.894 35.1482C115.762 35.286 115.659 35.4454 115.585 35.6281C115.51 35.8107 115.474 36.015 115.474 36.2392C115.474 36.465 115.51 36.6676 115.585 36.8502C115.659 37.0329 115.762 37.1923 115.894 37.3301C116.027 37.4679 116.182 37.5725 116.363 37.6473C116.543 37.722 116.739 37.7585 116.949 37.7585Z" fill="white"/>
<path d="M126.715 33.8745V38.602H125.624V36.6642H123.488V38.602H122.391V33.8745H123.488V35.7393H125.624V33.8745H126.715Z" fill="white"/>
<path d="M133.517 33.8745V34.7662H132.009V38.602H130.931V34.7662H129.43V33.8745H133.517Z" fill="white"/>
<path d="M139.877 37.7252V38.602H136.227V33.8745H139.79V34.7529H137.311V35.7725H139.5V36.631H137.311V37.7252H139.877Z" fill="white"/>
<path d="M142.777 38.6037V33.8745H143.855V36.9614L146.112 33.8745H147.135V38.6037H146.057V35.53L143.807 38.6037H142.777ZM144.946 33.5707C144.506 33.5707 144.181 33.481 143.969 33.3C143.757 33.1207 143.65 32.8649 143.647 32.5361H144.395C144.4 32.6989 144.448 32.8218 144.539 32.9048C144.632 32.9878 144.767 33.0293 144.946 33.0293C145.13 33.0293 145.271 32.9878 145.367 32.9048C145.463 32.8218 145.512 32.6989 145.512 32.5361H146.253C146.253 32.8649 146.147 33.119 145.936 33.3C145.726 33.481 145.395 33.5707 144.946 33.5707Z" fill="white"/>
<path d="M154.653 33.8745V38.602H153.562V36.6642H151.426V38.602H150.328V33.8745H151.426V35.7393H153.562V33.8745H154.653Z" fill="white"/>
<path d="M161.502 37.7252V38.602H157.852V33.8745H161.415V34.7529H158.936V35.7725H161.125V36.631H158.936V37.7252H161.502Z" fill="white"/>
<path d="M168.242 34.6716C168.075 34.4142 167.839 34.2182 167.535 34.0804C167.229 33.9426 166.864 33.8745 166.444 33.8745H164.402V38.602H165.5V37.2985H166.444C166.864 37.2985 167.229 37.2288 167.535 37.0893C167.839 36.9498 168.075 36.7539 168.242 36.4981C168.407 36.2441 168.49 35.9385 168.49 35.5832C168.49 35.2328 168.407 34.9289 168.242 34.6716ZM167.137 36.1909C166.965 36.3354 166.715 36.4068 166.382 36.4068H165.5V34.7662H166.382C166.715 34.7662 166.965 34.8376 167.137 34.9788C167.308 35.1199 167.392 35.3225 167.392 35.5832C167.392 35.8439 167.308 36.0465 167.137 36.1909Z" fill="white"/>
<path d="M173.522 35.4354C174.084 35.4354 174.521 35.5616 174.832 35.814C175.143 36.0664 175.301 36.4467 175.301 36.9548C175.301 37.4944 175.128 37.9046 174.786 38.1835C174.443 38.4625 173.968 38.602 173.362 38.602H171.234V33.8745H172.312V35.4354H173.522ZM173.294 37.7933C173.58 37.7933 173.804 37.7219 173.965 37.5808C174.123 37.4396 174.203 37.2371 174.203 36.9764C174.203 36.7157 174.123 36.5264 173.965 36.4085C173.806 36.2922 173.582 36.2324 173.294 36.2324H172.311V37.7933H173.294ZM175.907 38.6037V33.8745H176.984V38.6037H175.907Z" fill="white"/>
</g>
<defs>
<clipPath id="clip0_270_1173">
<rect width="177" height="45" fill="white"/>
</clipPath>
</defs>
</svg>
