<svg xmlns="http://www.w3.org/2000/svg" width="10.377" height="15.091" viewBox="0 0 10.377 15.091">
  <g id="_2948253" data-name="2948253" transform="translate(-79.968 0)">
    <path id="Контур_1684" data-name="Контур 1684" d="M89.624,2.584A5.121,5.121,0,0,0,85.272,0c-.077,0-.155,0-.232,0a5.121,5.121,0,0,0-4.352,2.583,5.254,5.254,0,0,0-.069,5.191l3.742,6.85.005.009a.91.91,0,0,0,1.578,0l.005-.009,3.742-6.85a5.254,5.254,0,0,0-.069-5.191ZM85.156,6.838a2.122,2.122,0,1,1,2.122-2.122A2.125,2.125,0,0,1,85.156,6.838Z" transform="translate(0 0)"/>
  </g>
</svg>
