<svg width="320" height="390" viewBox="0 0 320 390" fill="none" xmlns="http://www.w3.org/2000/svg">
<line x1="23.7041" y1="58.3517" x2="296.647" y2="331.295" stroke="white" stroke-opacity="0.17" stroke-width="0.5"/>
<line x1="22.3506" y1="331.295" x2="295.294" y2="58.3517" stroke="white" stroke-opacity="0.17" stroke-width="0.5"/>
<circle cx="160" cy="194" r="149.5" stroke="#C2C2C2" stroke-opacity="0.08" stroke-width="21"/>
<line y1="-0.25" x2="100" y2="-0.25" transform="matrix(-0.707107 -0.707107 -0.707107 0.707107 195 230)" stroke="white" stroke-opacity="0.33" stroke-width="0.5"/>
<line x1="123.823" y1="229.823" x2="194.534" y2="159.113" stroke="white" stroke-opacity="0.33" stroke-width="0.5"/>
<circle cx="160" cy="193" r="58" stroke="white" stroke-opacity="0.09" stroke-width="8"/>
<circle cx="160" cy="194" r="28" fill="white" fill-opacity="0.06"/>
<circle cx="160" cy="194" r="20" fill="#F91C1C"/>
<circle cx="160" cy="194" r="13" fill="black"/>
<circle cx="160" cy="194" r="3" fill="#8E949B"/>
<mask id="path-11-inside-1_270_46237" fill="white">
<path d="M227.295 315.624C207.365 326.651 185.03 332.612 162.256 332.982C139.481 333.351 116.965 328.119 96.6874 317.744L97.174 316.793C117.296 327.088 139.639 332.28 162.239 331.914C184.838 331.547 207.001 325.632 226.778 314.689L227.295 315.624Z"/>
</mask>
<path d="M227.295 315.624C207.365 326.651 185.03 332.612 162.256 332.982C139.481 333.351 116.965 328.119 96.6874 317.744L97.174 316.793C117.296 327.088 139.639 332.28 162.239 331.914C184.838 331.547 207.001 325.632 226.778 314.689L227.295 315.624Z" stroke="#F91C1C" stroke-width="2" mask="url(#path-11-inside-1_270_46237)"/>
<mask id="path-12-inside-2_270_46237" fill="white">
<path d="M93.7952 71.7792C113.823 60.9304 136.21 55.1696 158.987 55.0037C181.764 54.8377 204.233 60.2717 224.417 70.8275L223.922 71.7741C203.893 61.2994 181.597 55.9073 158.995 56.0719C136.393 56.2366 114.178 61.9531 94.3041 72.7185L93.7952 71.7792Z"/>
</mask>
<path d="M93.7952 71.7792C113.823 60.9304 136.21 55.1696 158.987 55.0037C181.764 54.8377 204.233 60.2717 224.417 70.8275L223.922 71.7741C203.893 61.2994 181.597 55.9073 158.995 56.0719C136.393 56.2366 114.178 61.9531 94.3041 72.7185L93.7952 71.7792Z" stroke="#F91C1C" stroke-width="2" mask="url(#path-12-inside-2_270_46237)"/>
<rect x="127" width="65" height="2" fill="#F91C1C"/>
<rect x="127" y="388" width="65" height="2" fill="#F91C1C"/>
</svg>
