<svg id="telephone-2" xmlns="http://www.w3.org/2000/svg" width="13.971" height="14.024" viewBox="0 0 13.971 14.024">
  <path id="Контур_2" data-name="Контур 2" d="M3.743,9.322A14.878,14.878,0,0,0,8.691,13.2a7.7,7.7,0,0,0,2.769.819c.067,0,.131.006.2.006a2.293,2.293,0,0,0,1.778-.764.063.063,0,0,0,.012-.015,7.487,7.487,0,0,1,.561-.581c.137-.131.276-.267.41-.407a1.4,1.4,0,0,0-.006-2.089L12.666,8.421a1.414,1.414,0,0,0-1.023-.471,1.461,1.461,0,0,0-1.034.468l-1.04,1.04c-.1-.055-.195-.1-.288-.151a3.593,3.593,0,0,1-.32-.174,11.01,11.01,0,0,1-2.63-2.394,6.34,6.34,0,0,1-.889-1.418c.273-.247.529-.506.776-.758.087-.09.177-.18.267-.27a1.49,1.49,0,0,0,.482-1.046A1.478,1.478,0,0,0,6.486,2.2L5.62,1.334c-.1-.1-.2-.2-.3-.3-.192-.2-.392-.4-.59-.584A1.449,1.449,0,0,0,3.711,0,1.491,1.491,0,0,0,2.676.45L1.589,1.537a2.233,2.233,0,0,0-.665,1.43,5.378,5.378,0,0,0,.4,2.325A13.524,13.524,0,0,0,3.743,9.322ZM1.633,3.028A1.537,1.537,0,0,1,2.1,2.04L3.176.959A.783.783,0,0,1,3.711.712a.742.742,0,0,1,.523.253c.195.18.378.369.575.57.1.1.2.2.3.308l.866.866a.789.789,0,0,1,.273.543.789.789,0,0,1-.273.543l-.27.273c-.27.273-.523.532-.8.779l-.015.015a.568.568,0,0,0-.145.645l.009.023a6.839,6.839,0,0,0,1.02,1.659,11.62,11.62,0,0,0,2.8,2.551,4.159,4.159,0,0,0,.384.209,3.593,3.593,0,0,1,.32.174l.032.017a.607.607,0,0,0,.282.073.616.616,0,0,0,.433-.2L11.112,8.93a.769.769,0,0,1,.532-.259.73.73,0,0,1,.514.259l1.752,1.749a.7.7,0,0,1-.009,1.1c-.122.131-.25.256-.386.386a8.368,8.368,0,0,0-.607.631,1.6,1.6,0,0,1-1.247.529c-.049,0-.1,0-.151-.006a7,7,0,0,1-2.5-.75,14.134,14.134,0,0,1-4.71-3.69A12.945,12.945,0,0,1,2,5.053,4.687,4.687,0,0,1,1.633,3.028Z" transform="translate(-0.912 0)"/>
</svg>
