<svg width="308" height="308" viewBox="0 0 308 308" fill="none" xmlns="http://www.w3.org/2000/svg">
<line y1="-0.25" x2="262.039" y2="-0.25" transform="matrix(-0.707107 -0.707107 -0.707107 0.707107 246.523 246.289)" stroke="white" stroke-opacity="0.33" stroke-width="0.5"/>
<line x1="60.2998" y1="246.113" x2="245.589" y2="60.8233" stroke="white" stroke-opacity="0.33" stroke-width="0.5"/>
<circle cx="154" cy="154" r="142.5" stroke="white" stroke-opacity="0.17" stroke-width="23"/>
<mask id="path-4-inside-1_615_98" fill="white">
<path d="M220.448 266.897C199.304 279.342 175.089 285.599 150.563 284.955C126.036 284.311 102.184 276.793 81.7212 263.256L82.6288 261.884C102.834 275.251 126.387 282.675 150.606 283.311C174.824 283.946 198.735 277.768 219.614 265.479L220.448 266.897Z"/>
</mask>
<path d="M220.448 266.897C199.304 279.342 175.089 285.599 150.563 284.955C126.036 284.311 102.184 276.793 81.7212 263.256L82.6288 261.884C102.834 275.251 126.387 282.675 150.606 283.311C174.824 283.946 198.735 277.768 219.614 265.479L220.448 266.897Z" stroke="#F91C1C" stroke-width="2" stroke-dasharray="2 2" mask="url(#path-4-inside-1_615_98)"/>
<mask id="path-5-inside-2_615_98" fill="white">
<path d="M80.5909 45.5007C100.912 31.7519 124.685 23.9862 149.203 23.0878C173.722 22.1895 198 28.1947 219.272 40.4195L218.716 41.3875C197.625 29.2669 173.554 23.3129 149.244 24.2035C124.935 25.0942 101.364 32.7938 81.2165 46.4254L80.5909 45.5007Z"/>
</mask>
<path d="M80.5909 45.5007C100.912 31.7519 124.685 23.9862 149.203 23.0878C173.722 22.1895 198 28.1947 219.272 40.4195L218.716 41.3875C197.625 29.2669 173.554 23.3129 149.244 24.2035C124.935 25.0942 101.364 32.7938 81.2165 46.4254L80.5909 45.5007Z" stroke="#F91C1C" stroke-width="2" stroke-dasharray="2 2" mask="url(#path-5-inside-2_615_98)"/>
<circle cx="154" cy="154" r="111" fill="black" stroke="#F91C1C" stroke-width="8"/>
</svg>
