<svg xmlns="http://www.w3.org/2000/svg" width="11.517" height="11.556" viewBox="0 0 11.517 11.556">
  <g id="_2948334" data-name="2948334" transform="translate(-0.881)">
    <path id="Контур_1689" data-name="Контур 1689" d="M156.839,272h-4.457a.113.113,0,0,0-.113.115c.013.522.049,1.022.1,1.493a.113.113,0,0,0,.14.1,8.564,8.564,0,0,1,4.2,0,.113.113,0,0,0,.14-.1c.054-.472.089-.971.1-1.493A.113.113,0,0,0,156.839,272Z" transform="translate(-147.972 -265.861)"/>
    <path id="Контур_1690" data-name="Контур 1690" d="M156.849,164.37a.113.113,0,0,0-.14-.1,8.563,8.563,0,0,1-4.2,0,.113.113,0,0,0-.14.1c-.054.472-.089.971-.1,1.493a.113.113,0,0,0,.113.116h4.457a.113.113,0,0,0,.113-.116C156.938,165.341,156.9,164.842,156.849,164.37Z" transform="translate(-147.972 -160.562)"/>
    <path id="Контур_1691" data-name="Контур 1691" d="M167.122,2.856a9.02,9.02,0,0,0-.87-2.685.112.112,0,0,0-.076-.056,5.848,5.848,0,0,0-2.306,0,.112.112,0,0,0-.076.056,9.019,9.019,0,0,0-.87,2.685.112.112,0,0,0,.081.129,7.749,7.749,0,0,0,2.018.266,7.748,7.748,0,0,0,2.018-.266A.112.112,0,0,0,167.122,2.856Z" transform="translate(-158.384)"/>
    <path id="Контур_1692" data-name="Контур 1692" d="M355.51,22.579a.113.113,0,0,0-.151.144l0,.005a11.251,11.251,0,0,1,.532,1.921.113.113,0,0,0,.154.083,7.753,7.753,0,0,0,1.267-.663.113.113,0,0,0,.022-.172q-.069-.074-.141-.146A5.776,5.776,0,0,0,355.51,22.579Z" transform="translate(-346.47 -22.059)"/>
    <path id="Контур_1693" data-name="Контур 1693" d="M386.181,115.976h2.469a.113.113,0,0,0,.113-.123,5.722,5.722,0,0,0-.928-2.69.113.113,0,0,0-.157-.032,8.458,8.458,0,0,1-1.369.733q-.148.063-.3.119a.113.113,0,0,0-.072.12c.071.567.115,1.157.13,1.762A.113.113,0,0,0,386.181,115.976Z" transform="translate(-376.366 -110.559)"/>
    <path id="Контур_1694" data-name="Контур 1694" d="M162.924,368.395a9.019,9.019,0,0,0,.87,2.685.112.112,0,0,0,.076.056,5.848,5.848,0,0,0,2.306,0,.112.112,0,0,0,.076-.056,9.018,9.018,0,0,0,.87-2.685.112.112,0,0,0-.081-.129,7.788,7.788,0,0,0-4.036,0A.112.112,0,0,0,162.924,368.395Z" transform="translate(-158.384 -359.694)"/>
    <path id="Контур_1695" data-name="Контур 1695" d="M3.335,274.113q.148-.063.3-.119a.113.113,0,0,0,.072-.12c-.071-.566-.115-1.157-.13-1.762a.113.113,0,0,0-.113-.11H.994a.113.113,0,0,0-.113.123,5.722,5.722,0,0,0,.928,2.69.113.113,0,0,0,.157.032,8.453,8.453,0,0,1,1.369-.733Z" transform="translate(0 -265.862)"/>
    <path id="Контур_1696" data-name="Контур 1696" d="M357.314,393.882a7.751,7.751,0,0,0-1.267-.663.113.113,0,0,0-.154.083,11.252,11.252,0,0,1-.532,1.921l0,.005a.113.113,0,0,0,.151.144A5.777,5.777,0,0,0,357.2,394.2q.072-.072.141-.146A.113.113,0,0,0,357.314,393.882Z" transform="translate(-346.471 -384.335)"/>
    <path id="Контур_1697" data-name="Контур 1697" d="M386.069,272.109c-.015.6-.059,1.2-.13,1.762a.113.113,0,0,0,.072.12q.15.057.3.119a8.463,8.463,0,0,1,1.369.733.113.113,0,0,0,.157-.032,5.722,5.722,0,0,0,.928-2.69.113.113,0,0,0-.113-.123h-2.469A.113.113,0,0,0,386.069,272.109Z" transform="translate(-376.366 -265.86)"/>
    <path id="Контур_1698" data-name="Контур 1698" d="M67.473,24.068a7.751,7.751,0,0,0,1.267.663.113.113,0,0,0,.154-.083,11.251,11.251,0,0,1,.532-1.921l0-.005a.113.113,0,0,0-.151-.144,5.778,5.778,0,0,0-1.684,1.173q-.072.072-.141.146A.113.113,0,0,0,67.473,24.068Z" transform="translate(-65.038 -22.058)"/>
    <path id="Контур_1699" data-name="Контур 1699" d="M3.573,115.976a17.816,17.816,0,0,1,.133-1.873.113.113,0,0,0-.072-.12q-.15-.057-.3-.119a8.461,8.461,0,0,1-1.369-.733.113.113,0,0,0-.157.032,5.722,5.722,0,0,0-.928,2.69.113.113,0,0,0,.113.123Z" transform="translate(0 -110.559)"/>
    <path id="Контур_1700" data-name="Контур 1700" d="M69.276,395.371a.113.113,0,0,0,.151-.144l0-.005a11.253,11.253,0,0,1-.532-1.921.113.113,0,0,0-.154-.083,7.749,7.749,0,0,0-1.267.663.113.113,0,0,0-.022.172q.069.074.141.146A5.777,5.777,0,0,0,69.276,395.371Z" transform="translate(-65.039 -384.334)"/>
  </g>
</svg>
